<svg width="142" height="26" viewBox="0 0 142 26" fill="none" xmlns="http://www.w3.org/2000/svg">
<g style="mix-blend-mode:darken" opacity="0.5">
<mask id="path-1-outside-1_23_57" maskUnits="userSpaceOnUse" x="0" y="0" width="142" height="26" fill="black">
<rect fill="white" width="142" height="26"/>
<path d="M12.9886 17.922C12.9886 18.5233 12.5706 18.824 11.7346 18.824C10.5906 18.824 9.38798 18.23 8.12665 17.042C6.87998 15.854 5.99265 14.6147 5.46465 13.324C5.22998 14.028 5.06865 14.5047 4.98065 14.754C4.89265 15.0033 4.76065 15.3993 4.58465 15.942C4.40865 16.4847 4.26932 16.888 4.16665 17.152C4.07865 17.416 3.97598 17.6947 3.85865 17.988C3.63865 18.5453 3.42598 18.824 3.22065 18.824C2.88332 18.824 2.47265 18.5453 1.98865 17.988C1.51932 17.416 1.28465 16.954 1.28465 16.602C1.28465 16.25 1.45332 15.5973 1.79065 14.644C2.78798 11.7253 3.35998 9.06333 3.50665 6.658C3.22798 6.438 2.97865 6.13 2.75865 5.734C2.53865 5.338 2.42865 5.008 2.42865 4.744C2.42865 4.304 2.99332 3.842 4.12265 3.358C5.26665 2.874 6.57932 2.632 8.06065 2.632C9.55665 2.632 10.8033 2.984 11.8006 3.688C12.798 4.392 13.2966 5.30867 13.2966 6.438C13.2966 7.274 13.0473 8.08067 12.5486 8.858C12.0646 9.62067 11.5293 10.222 10.9426 10.662C10.3706 11.0873 9.83532 11.476 9.33665 11.828C8.85265 12.18 8.61065 12.4073 8.61065 12.51C8.61065 12.862 8.72798 13.1993 8.96265 13.522C9.19732 13.83 9.52732 14.1967 9.95265 14.622C10.378 15.0327 10.7446 15.3847 11.0526 15.678C11.3606 15.9567 11.61 16.1913 11.8006 16.382C12.006 16.5727 12.204 16.7707 12.3946 16.976C12.7906 17.3573 12.9886 17.6727 12.9886 17.922ZM9.90865 6.658C9.90865 6.042 9.30732 5.734 8.10465 5.734C7.53265 5.734 6.85065 5.89533 6.05865 6.218C6.42532 6.77533 6.60865 7.28867 6.60865 7.758C6.60865 8.60867 6.49132 9.54733 6.25665 10.574C6.41798 10.4567 6.71865 10.2513 7.15865 9.958C7.59865 9.65 7.93598 9.408 8.17065 9.232C8.41998 9.04133 8.69865 8.79933 9.00665 8.506C9.60798 7.934 9.90865 7.318 9.90865 6.658ZM24.1335 11.498C24.1335 12.2167 23.6422 12.862 22.6595 13.434C21.6915 14.006 20.6942 14.292 19.6675 14.292C18.6409 14.292 17.7975 14.2187 17.1375 14.072C17.0055 14.468 16.9395 14.864 16.9395 15.26C16.9395 15.656 17.0055 15.942 17.1375 16.118C17.2695 16.2793 17.5995 16.36 18.1275 16.36C19.2275 16.36 20.1662 16.2573 20.9435 16.052C21.7355 15.8467 22.1462 15.744 22.1755 15.744C22.7769 15.744 23.0775 15.942 23.0775 16.338C23.0775 16.91 22.6009 17.4527 21.6475 17.966C20.7089 18.4793 19.6162 18.736 18.3695 18.736C17.1375 18.736 16.1475 18.3473 15.3995 17.57C14.6515 16.7927 14.2775 15.876 14.2775 14.82C14.2775 13.7493 14.5855 12.6347 15.2015 11.476C15.8322 10.3173 16.6169 9.34933 17.5555 8.572C18.4942 7.78 19.4255 7.384 20.3495 7.384C21.2882 7.384 22.1535 7.846 22.9455 8.77C23.7375 9.67933 24.1335 10.5887 24.1335 11.498ZM21.5815 11.146C21.5815 10.9993 21.4275 10.7867 21.1195 10.508C20.8115 10.2293 20.5182 10.09 20.2395 10.09C19.9755 10.09 19.6309 10.288 19.2055 10.684C18.7802 11.0653 18.3769 11.564 17.9955 12.18C18.1275 12.1947 18.3182 12.202 18.5675 12.202C20.5769 12.202 21.5815 11.85 21.5815 11.146ZM25.0197 15.282C25.0197 14.2553 25.3424 13.126 25.9877 11.894C26.6331 10.662 27.4764 9.606 28.5177 8.726C29.5737 7.846 30.6077 7.406 31.6197 7.406C32.1331 7.406 32.6611 7.74333 33.2037 8.418C33.7464 9.078 34.0177 9.672 34.0177 10.2C34.0177 10.5813 33.8417 10.772 33.4897 10.772C33.3137 10.772 33.0717 10.6913 32.7637 10.53C32.4557 10.3687 32.1404 10.288 31.8177 10.288C31.4951 10.288 31.0331 10.5667 30.4317 11.124C29.8451 11.6667 29.3171 12.3267 28.8477 13.104C28.3931 13.8667 28.1657 14.468 28.1657 14.908C28.1657 15.348 28.2464 15.634 28.4077 15.766C28.5837 15.898 28.9944 15.964 29.6397 15.964C30.2997 15.964 30.8937 15.9053 31.4217 15.788C31.9644 15.6707 32.3604 15.5533 32.6097 15.436C32.8737 15.304 33.1084 15.238 33.3137 15.238C33.7244 15.238 33.9297 15.414 33.9297 15.766C33.9297 16.4113 33.3651 17.0713 32.2357 17.746C31.1064 18.406 29.9771 18.736 28.8477 18.736C28.1291 18.736 27.3077 18.34 26.3837 17.548C25.4744 16.7413 25.0197 15.986 25.0197 15.282ZM37.9394 4.634C37.9394 4.25267 38.1081 3.864 38.4454 3.468C38.7974 3.05733 39.1347 2.852 39.4574 2.852C39.7947 2.852 40.1907 3.248 40.6454 4.04C41.1001 4.832 41.3274 5.41133 41.3274 5.778C41.3274 6.13 41.2101 6.40133 40.9754 6.592C40.7407 6.78267 40.4987 6.878 40.2494 6.878C39.8241 6.878 39.3327 6.59933 38.7754 6.042C38.2181 5.48467 37.9394 5.01533 37.9394 4.634ZM38.2694 7.384C38.7827 7.384 39.2374 7.67733 39.6334 8.264C40.0441 8.85067 40.2494 9.41533 40.2494 9.958C40.2494 10.2367 39.9927 11.2413 39.4794 12.972C38.9807 14.688 38.4821 16.316 37.9834 17.856C37.8074 18.428 37.4481 18.714 36.9054 18.714C36.5827 18.714 36.2967 18.5967 36.0474 18.362C35.8127 18.1127 35.6954 17.7973 35.6954 17.416C35.6954 17.02 35.8787 16.052 36.2454 14.512C36.6267 12.9573 36.9127 11.6373 37.1034 10.552C37.3087 9.452 37.4921 8.65267 37.6534 8.154C37.8294 7.64067 38.0347 7.384 38.2694 7.384ZM49.4842 7.406C50.0269 7.406 50.6062 7.89 51.2222 8.858C51.8529 9.826 52.1682 10.794 52.1682 11.762C52.1682 12.3487 51.9189 13.0453 51.4202 13.852C50.9216 14.6587 50.2909 15.4213 49.5282 16.14C48.7802 16.844 47.9076 17.4453 46.9102 17.944C45.9276 18.4427 44.9889 18.692 44.0942 18.692H43.8302C42.9062 22.5347 42.2536 24.456 41.8722 24.456C41.5642 24.456 41.2416 24.1993 40.9042 23.686C40.5522 23.1727 40.3762 22.7473 40.3762 22.41C40.3762 22.0727 40.5889 21.0387 41.0142 19.308C42.2756 14.1747 42.9062 10.3027 42.9062 7.692C42.9062 7.252 43.1189 7.032 43.5442 7.032C43.8962 7.032 44.3436 7.23 44.8862 7.626C45.4289 8.022 45.7662 8.53533 45.8982 9.166C47.1449 7.99267 48.3402 7.406 49.4842 7.406ZM44.5122 16.074C45.6562 15.854 46.7342 15.2233 47.7462 14.182C48.7729 13.1407 49.2862 12.2387 49.2862 11.476C49.2862 10.7133 49.0736 10.332 48.6482 10.332C48.0322 10.332 47.3796 10.684 46.6902 11.388C46.4116 11.6813 46.1036 12.114 45.7662 12.686C45.4289 13.258 45.1356 13.9253 44.8862 14.688L44.5122 16.074ZM63.1921 11.498C63.1921 12.2167 62.7008 12.862 61.7181 13.434C60.7501 14.006 59.7528 14.292 58.7261 14.292C57.6995 14.292 56.8561 14.2187 56.1961 14.072C56.0641 14.468 55.9981 14.864 55.9981 15.26C55.9981 15.656 56.0641 15.942 56.1961 16.118C56.3281 16.2793 56.6581 16.36 57.1861 16.36C58.2861 16.36 59.2248 16.2573 60.0021 16.052C60.7941 15.8467 61.2048 15.744 61.2341 15.744C61.8355 15.744 62.1361 15.942 62.1361 16.338C62.1361 16.91 61.6595 17.4527 60.7061 17.966C59.7675 18.4793 58.6748 18.736 57.4281 18.736C56.1961 18.736 55.2061 18.3473 54.4581 17.57C53.7101 16.7927 53.3361 15.876 53.3361 14.82C53.3361 13.7493 53.6441 12.6347 54.2601 11.476C54.8908 10.3173 55.6755 9.34933 56.6141 8.572C57.5528 7.78 58.4841 7.384 59.4081 7.384C60.3468 7.384 61.2121 7.846 62.0041 8.77C62.7961 9.67933 63.1921 10.5887 63.1921 11.498ZM60.6401 11.146C60.6401 10.9993 60.4861 10.7867 60.1781 10.508C59.8701 10.2293 59.5768 10.09 59.2981 10.09C59.0341 10.09 58.6895 10.288 58.2641 10.684C57.8388 11.0653 57.4355 11.564 57.0541 12.18C57.1861 12.1947 57.3768 12.202 57.6261 12.202C59.6355 12.202 60.6401 11.85 60.6401 11.146ZM74.5063 14.16C74.5063 15.4067 73.9123 16.4773 72.7243 17.372C71.5363 18.2667 70.1797 18.714 68.6543 18.714C67.129 18.714 65.897 18.34 64.9583 17.592C64.0343 16.8293 63.5723 16.0447 63.5723 15.238C63.5723 14.4313 63.7997 14.028 64.2543 14.028C64.6063 14.028 64.973 14.204 65.3543 14.556C65.7357 14.908 66.161 15.26 66.6303 15.612C67.1143 15.964 67.657 16.14 68.2583 16.14C68.8597 16.14 69.5417 15.8907 70.3043 15.392C71.067 14.8933 71.4483 14.4753 71.4483 14.138C71.4483 13.8007 71.0303 13.236 70.1943 12.444C69.373 11.652 68.5443 10.838 67.7083 10.002C66.887 9.15133 66.4763 8.49867 66.4763 8.044C66.4763 7.57467 66.557 7.06867 66.7183 6.526C66.8943 5.98333 67.107 5.60933 67.3563 5.404C68.1483 4.62667 69.1677 3.95933 70.4143 3.402C71.6757 2.83 72.783 2.544 73.7363 2.544C74.2937 2.544 74.7557 2.786 75.1223 3.27C75.489 3.73933 75.6723 4.23067 75.6723 4.744C75.6723 4.94933 75.5037 5.118 75.1663 5.25C74.8437 5.36733 74.367 5.492 73.7363 5.624C73.1203 5.756 72.4897 5.94667 71.8443 6.196C70.3483 6.75333 69.6003 7.22267 69.6003 7.604C69.6003 7.78 69.857 8.10267 70.3703 8.572C70.8837 9.02667 71.441 9.51067 72.0423 10.024C72.6583 10.5227 73.223 11.1607 73.7363 11.938C74.2497 12.7007 74.5063 13.4413 74.5063 14.16ZM78.967 2.148C78.967 1.532 79.209 1.224 79.693 1.224C80.089 1.224 80.5437 1.554 81.057 2.214C81.5703 2.874 81.827 3.43867 81.827 3.908C81.827 4.37733 81.7317 5.03733 81.541 5.888C81.3503 6.73867 81.1523 7.516 80.947 8.22C80.7563 8.924 80.463 9.92867 80.067 11.234C79.671 12.5247 79.3997 13.4267 79.253 13.94C80.2063 12.004 81.211 10.4273 82.267 9.21C83.3377 7.99267 84.2323 7.384 84.951 7.384C85.4057 7.384 85.9263 7.78733 86.513 8.594C87.0997 9.386 87.393 10.1047 87.393 10.75C87.393 11.3807 87.2757 12.3047 87.041 13.522C86.8063 14.7393 86.3957 15.9127 85.809 17.042C85.2223 18.1713 84.621 18.736 84.005 18.736C83.521 18.736 83.279 18.3913 83.279 17.702C83.279 17.2033 83.4257 16.3893 83.719 15.26C84.1443 13.5733 84.357 12.5467 84.357 12.18C84.357 11.8133 84.2983 11.63 84.181 11.63C83.3303 11.63 82.0837 13.0453 80.441 15.876C79.8837 16.844 79.4143 17.5627 79.033 18.032C78.6663 18.5013 78.3143 18.736 77.977 18.736C77.6397 18.736 77.229 18.4647 76.745 17.922C76.2757 17.3793 76.041 16.9613 76.041 16.668C76.041 16.36 76.0997 15.9127 76.217 15.326C76.349 14.7393 76.5397 13.9033 76.789 12.818C77.053 11.7327 77.4783 9.76733 78.065 6.922C78.6663 4.062 78.967 2.47067 78.967 2.148ZM91.7155 16.492C92.5075 16.14 93.1968 15.4287 93.7835 14.358C94.3701 13.2873 94.6635 12.2827 94.6635 11.344C94.6635 10.4053 94.5315 9.76 94.2675 9.408C93.6368 9.77467 93.0061 10.5447 92.3755 11.718C91.7595 12.8913 91.4515 13.9253 91.4515 14.82C91.4515 15.7 91.5395 16.2573 91.7155 16.492ZM88.5035 15.04C88.5035 13.2067 89.0681 11.4687 90.1975 9.826C91.3415 8.18333 92.4708 7.362 93.5855 7.362C94.7001 7.362 95.6388 7.758 96.4015 8.55C97.1641 9.32733 97.5455 10.2733 97.5455 11.388C97.5455 12.488 97.2815 13.61 96.7535 14.754C96.2255 15.898 95.4848 16.8513 94.5315 17.614C93.5781 18.362 92.5588 18.736 91.4735 18.736C90.6668 18.736 89.9701 18.3767 89.3835 17.658C88.7968 16.9393 88.5035 16.0667 88.5035 15.04ZM106.633 7.406C107.175 7.406 107.755 7.89 108.371 8.858C109.001 9.826 109.317 10.794 109.317 11.762C109.317 12.3487 109.067 13.0453 108.569 13.852C108.07 14.6587 107.439 15.4213 106.677 16.14C105.929 16.844 105.056 17.4453 104.059 17.944C103.076 18.4427 102.137 18.692 101.243 18.692H100.979C100.055 22.5347 99.402 24.456 99.0207 24.456C98.7127 24.456 98.39 24.1993 98.0527 23.686C97.7007 23.1727 97.5247 22.7473 97.5247 22.41C97.5247 22.0727 97.7373 21.0387 98.1627 19.308C99.424 14.1747 100.055 10.3027 100.055 7.692C100.055 7.252 100.267 7.032 100.693 7.032C101.045 7.032 101.492 7.23 102.035 7.626C102.577 8.022 102.915 8.53533 103.047 9.166C104.293 7.99267 105.489 7.406 106.633 7.406ZM101.661 16.074C102.805 15.854 103.883 15.2233 104.895 14.182C105.921 13.1407 106.435 12.2387 106.435 11.476C106.435 10.7133 106.222 10.332 105.797 10.332C105.181 10.332 104.528 10.684 103.839 11.388C103.56 11.6813 103.252 12.114 102.915 12.686C102.577 13.258 102.284 13.9253 102.035 14.688L101.661 16.074ZM118.471 7.406C119.013 7.406 119.593 7.89 120.209 8.858C120.839 9.826 121.155 10.794 121.155 11.762C121.155 12.3487 120.905 13.0453 120.407 13.852C119.908 14.6587 119.277 15.4213 118.515 16.14C117.767 16.844 116.894 17.4453 115.897 17.944C114.914 18.4427 113.975 18.692 113.081 18.692H112.817C111.893 22.5347 111.24 24.456 110.859 24.456C110.551 24.456 110.228 24.1993 109.891 23.686C109.539 23.1727 109.363 22.7473 109.363 22.41C109.363 22.0727 109.575 21.0387 110.001 19.308C111.262 14.1747 111.893 10.3027 111.893 7.692C111.893 7.252 112.105 7.032 112.531 7.032C112.883 7.032 113.33 7.23 113.873 7.626C114.415 8.022 114.753 8.53533 114.885 9.166C116.131 7.99267 117.327 7.406 118.471 7.406ZM113.499 16.074C114.643 15.854 115.721 15.2233 116.733 14.182C117.759 13.1407 118.273 12.2387 118.273 11.476C118.273 10.7133 118.06 10.332 117.635 10.332C117.019 10.332 116.366 10.684 115.677 11.388C115.398 11.6813 115.09 12.114 114.753 12.686C114.415 13.258 114.122 13.9253 113.873 14.688L113.499 16.074ZM132.178 11.498C132.178 12.2167 131.687 12.862 130.704 13.434C129.736 14.006 128.739 14.292 127.712 14.292C126.686 14.292 125.842 14.2187 125.182 14.072C125.05 14.468 124.984 14.864 124.984 15.26C124.984 15.656 125.05 15.942 125.182 16.118C125.314 16.2793 125.644 16.36 126.172 16.36C127.272 16.36 128.211 16.2573 128.988 16.052C129.78 15.8467 130.191 15.744 130.22 15.744C130.822 15.744 131.122 15.942 131.122 16.338C131.122 16.91 130.646 17.4527 129.692 17.966C128.754 18.4793 127.661 18.736 126.414 18.736C125.182 18.736 124.192 18.3473 123.444 17.57C122.696 16.7927 122.322 15.876 122.322 14.82C122.322 13.7493 122.63 12.6347 123.246 11.476C123.877 10.3173 124.662 9.34933 125.6 8.572C126.539 7.78 127.47 7.384 128.394 7.384C129.333 7.384 130.198 7.846 130.99 8.77C131.782 9.67933 132.178 10.5887 132.178 11.498ZM129.626 11.146C129.626 10.9993 129.472 10.7867 129.164 10.508C128.856 10.2293 128.563 10.09 128.284 10.09C128.02 10.09 127.676 10.288 127.25 10.684C126.825 11.0653 126.422 11.564 126.04 12.18C126.172 12.1947 126.363 12.202 126.612 12.202C128.622 12.202 129.626 11.85 129.626 11.146ZM134.275 11.102L134.143 8.616C134.143 7.79467 134.399 7.384 134.913 7.384C135.206 7.384 135.492 7.494 135.771 7.714C136.064 7.934 136.284 8.27867 136.431 8.748C136.929 8.308 137.472 7.956 138.059 7.692C138.66 7.41333 139.188 7.274 139.643 7.274C140.713 7.274 141.249 7.53067 141.249 8.044C141.249 8.308 141.197 8.506 141.095 8.638C141.007 8.75533 140.933 8.84333 140.875 8.902C140.831 8.96067 140.743 9.04133 140.611 9.144C140.493 9.232 140.405 9.298 140.347 9.342C140.009 9.562 139.767 9.716 139.621 9.804C138.961 10.2147 138.396 10.7133 137.927 11.3C137.457 11.872 137.105 12.6713 136.871 13.698C136.475 15.3847 136.086 16.646 135.705 17.482C135.338 18.3033 134.92 18.714 134.451 18.714C133.996 18.714 133.651 18.494 133.417 18.054C133.197 17.614 133.087 17.2033 133.087 16.822C133.087 16.426 133.226 15.8393 133.505 15.062C133.798 14.2847 133.996 13.6173 134.099 13.06C134.216 12.488 134.275 11.8353 134.275 11.102Z"/>
</mask>
<g filter="url(#filter0_i_23_57)">
<path d="M12.9886 17.922C12.9886 18.5233 12.5706 18.824 11.7346 18.824C10.5906 18.824 9.38798 18.23 8.12665 17.042C6.87998 15.854 5.99265 14.6147 5.46465 13.324C5.22998 14.028 5.06865 14.5047 4.98065 14.754C4.89265 15.0033 4.76065 15.3993 4.58465 15.942C4.40865 16.4847 4.26932 16.888 4.16665 17.152C4.07865 17.416 3.97598 17.6947 3.85865 17.988C3.63865 18.5453 3.42598 18.824 3.22065 18.824C2.88332 18.824 2.47265 18.5453 1.98865 17.988C1.51932 17.416 1.28465 16.954 1.28465 16.602C1.28465 16.25 1.45332 15.5973 1.79065 14.644C2.78798 11.7253 3.35998 9.06333 3.50665 6.658C3.22798 6.438 2.97865 6.13 2.75865 5.734C2.53865 5.338 2.42865 5.008 2.42865 4.744C2.42865 4.304 2.99332 3.842 4.12265 3.358C5.26665 2.874 6.57932 2.632 8.06065 2.632C9.55665 2.632 10.8033 2.984 11.8006 3.688C12.798 4.392 13.2966 5.30867 13.2966 6.438C13.2966 7.274 13.0473 8.08067 12.5486 8.858C12.0646 9.62067 11.5293 10.222 10.9426 10.662C10.3706 11.0873 9.83532 11.476 9.33665 11.828C8.85265 12.18 8.61065 12.4073 8.61065 12.51C8.61065 12.862 8.72798 13.1993 8.96265 13.522C9.19732 13.83 9.52732 14.1967 9.95265 14.622C10.378 15.0327 10.7446 15.3847 11.0526 15.678C11.3606 15.9567 11.61 16.1913 11.8006 16.382C12.006 16.5727 12.204 16.7707 12.3946 16.976C12.7906 17.3573 12.9886 17.6727 12.9886 17.922ZM9.90865 6.658C9.90865 6.042 9.30732 5.734 8.10465 5.734C7.53265 5.734 6.85065 5.89533 6.05865 6.218C6.42532 6.77533 6.60865 7.28867 6.60865 7.758C6.60865 8.60867 6.49132 9.54733 6.25665 10.574C6.41798 10.4567 6.71865 10.2513 7.15865 9.958C7.59865 9.65 7.93598 9.408 8.17065 9.232C8.41998 9.04133 8.69865 8.79933 9.00665 8.506C9.60798 7.934 9.90865 7.318 9.90865 6.658ZM24.1335 11.498C24.1335 12.2167 23.6422 12.862 22.6595 13.434C21.6915 14.006 20.6942 14.292 19.6675 14.292C18.6409 14.292 17.7975 14.2187 17.1375 14.072C17.0055 14.468 16.9395 14.864 16.9395 15.26C16.9395 15.656 17.0055 15.942 17.1375 16.118C17.2695 16.2793 17.5995 16.36 18.1275 16.36C19.2275 16.36 20.1662 16.2573 20.9435 16.052C21.7355 15.8467 22.1462 15.744 22.1755 15.744C22.7769 15.744 23.0775 15.942 23.0775 16.338C23.0775 16.91 22.6009 17.4527 21.6475 17.966C20.7089 18.4793 19.6162 18.736 18.3695 18.736C17.1375 18.736 16.1475 18.3473 15.3995 17.57C14.6515 16.7927 14.2775 15.876 14.2775 14.82C14.2775 13.7493 14.5855 12.6347 15.2015 11.476C15.8322 10.3173 16.6169 9.34933 17.5555 8.572C18.4942 7.78 19.4255 7.384 20.3495 7.384C21.2882 7.384 22.1535 7.846 22.9455 8.77C23.7375 9.67933 24.1335 10.5887 24.1335 11.498ZM21.5815 11.146C21.5815 10.9993 21.4275 10.7867 21.1195 10.508C20.8115 10.2293 20.5182 10.09 20.2395 10.09C19.9755 10.09 19.6309 10.288 19.2055 10.684C18.7802 11.0653 18.3769 11.564 17.9955 12.18C18.1275 12.1947 18.3182 12.202 18.5675 12.202C20.5769 12.202 21.5815 11.85 21.5815 11.146ZM25.0197 15.282C25.0197 14.2553 25.3424 13.126 25.9877 11.894C26.6331 10.662 27.4764 9.606 28.5177 8.726C29.5737 7.846 30.6077 7.406 31.6197 7.406C32.1331 7.406 32.6611 7.74333 33.2037 8.418C33.7464 9.078 34.0177 9.672 34.0177 10.2C34.0177 10.5813 33.8417 10.772 33.4897 10.772C33.3137 10.772 33.0717 10.6913 32.7637 10.53C32.4557 10.3687 32.1404 10.288 31.8177 10.288C31.4951 10.288 31.0331 10.5667 30.4317 11.124C29.8451 11.6667 29.3171 12.3267 28.8477 13.104C28.3931 13.8667 28.1657 14.468 28.1657 14.908C28.1657 15.348 28.2464 15.634 28.4077 15.766C28.5837 15.898 28.9944 15.964 29.6397 15.964C30.2997 15.964 30.8937 15.9053 31.4217 15.788C31.9644 15.6707 32.3604 15.5533 32.6097 15.436C32.8737 15.304 33.1084 15.238 33.3137 15.238C33.7244 15.238 33.9297 15.414 33.9297 15.766C33.9297 16.4113 33.3651 17.0713 32.2357 17.746C31.1064 18.406 29.9771 18.736 28.8477 18.736C28.1291 18.736 27.3077 18.34 26.3837 17.548C25.4744 16.7413 25.0197 15.986 25.0197 15.282ZM37.9394 4.634C37.9394 4.25267 38.1081 3.864 38.4454 3.468C38.7974 3.05733 39.1347 2.852 39.4574 2.852C39.7947 2.852 40.1907 3.248 40.6454 4.04C41.1001 4.832 41.3274 5.41133 41.3274 5.778C41.3274 6.13 41.2101 6.40133 40.9754 6.592C40.7407 6.78267 40.4987 6.878 40.2494 6.878C39.8241 6.878 39.3327 6.59933 38.7754 6.042C38.2181 5.48467 37.9394 5.01533 37.9394 4.634ZM38.2694 7.384C38.7827 7.384 39.2374 7.67733 39.6334 8.264C40.0441 8.85067 40.2494 9.41533 40.2494 9.958C40.2494 10.2367 39.9927 11.2413 39.4794 12.972C38.9807 14.688 38.4821 16.316 37.9834 17.856C37.8074 18.428 37.4481 18.714 36.9054 18.714C36.5827 18.714 36.2967 18.5967 36.0474 18.362C35.8127 18.1127 35.6954 17.7973 35.6954 17.416C35.6954 17.02 35.8787 16.052 36.2454 14.512C36.6267 12.9573 36.9127 11.6373 37.1034 10.552C37.3087 9.452 37.4921 8.65267 37.6534 8.154C37.8294 7.64067 38.0347 7.384 38.2694 7.384ZM49.4842 7.406C50.0269 7.406 50.6062 7.89 51.2222 8.858C51.8529 9.826 52.1682 10.794 52.1682 11.762C52.1682 12.3487 51.9189 13.0453 51.4202 13.852C50.9216 14.6587 50.2909 15.4213 49.5282 16.14C48.7802 16.844 47.9076 17.4453 46.9102 17.944C45.9276 18.4427 44.9889 18.692 44.0942 18.692H43.8302C42.9062 22.5347 42.2536 24.456 41.8722 24.456C41.5642 24.456 41.2416 24.1993 40.9042 23.686C40.5522 23.1727 40.3762 22.7473 40.3762 22.41C40.3762 22.0727 40.5889 21.0387 41.0142 19.308C42.2756 14.1747 42.9062 10.3027 42.9062 7.692C42.9062 7.252 43.1189 7.032 43.5442 7.032C43.8962 7.032 44.3436 7.23 44.8862 7.626C45.4289 8.022 45.7662 8.53533 45.8982 9.166C47.1449 7.99267 48.3402 7.406 49.4842 7.406ZM44.5122 16.074C45.6562 15.854 46.7342 15.2233 47.7462 14.182C48.7729 13.1407 49.2862 12.2387 49.2862 11.476C49.2862 10.7133 49.0736 10.332 48.6482 10.332C48.0322 10.332 47.3796 10.684 46.6902 11.388C46.4116 11.6813 46.1036 12.114 45.7662 12.686C45.4289 13.258 45.1356 13.9253 44.8862 14.688L44.5122 16.074ZM63.1921 11.498C63.1921 12.2167 62.7008 12.862 61.7181 13.434C60.7501 14.006 59.7528 14.292 58.7261 14.292C57.6995 14.292 56.8561 14.2187 56.1961 14.072C56.0641 14.468 55.9981 14.864 55.9981 15.26C55.9981 15.656 56.0641 15.942 56.1961 16.118C56.3281 16.2793 56.6581 16.36 57.1861 16.36C58.2861 16.36 59.2248 16.2573 60.0021 16.052C60.7941 15.8467 61.2048 15.744 61.2341 15.744C61.8355 15.744 62.1361 15.942 62.1361 16.338C62.1361 16.91 61.6595 17.4527 60.7061 17.966C59.7675 18.4793 58.6748 18.736 57.4281 18.736C56.1961 18.736 55.2061 18.3473 54.4581 17.57C53.7101 16.7927 53.3361 15.876 53.3361 14.82C53.3361 13.7493 53.6441 12.6347 54.2601 11.476C54.8908 10.3173 55.6755 9.34933 56.6141 8.572C57.5528 7.78 58.4841 7.384 59.4081 7.384C60.3468 7.384 61.2121 7.846 62.0041 8.77C62.7961 9.67933 63.1921 10.5887 63.1921 11.498ZM60.6401 11.146C60.6401 10.9993 60.4861 10.7867 60.1781 10.508C59.8701 10.2293 59.5768 10.09 59.2981 10.09C59.0341 10.09 58.6895 10.288 58.2641 10.684C57.8388 11.0653 57.4355 11.564 57.0541 12.18C57.1861 12.1947 57.3768 12.202 57.6261 12.202C59.6355 12.202 60.6401 11.85 60.6401 11.146ZM74.5063 14.16C74.5063 15.4067 73.9123 16.4773 72.7243 17.372C71.5363 18.2667 70.1797 18.714 68.6543 18.714C67.129 18.714 65.897 18.34 64.9583 17.592C64.0343 16.8293 63.5723 16.0447 63.5723 15.238C63.5723 14.4313 63.7997 14.028 64.2543 14.028C64.6063 14.028 64.973 14.204 65.3543 14.556C65.7357 14.908 66.161 15.26 66.6303 15.612C67.1143 15.964 67.657 16.14 68.2583 16.14C68.8597 16.14 69.5417 15.8907 70.3043 15.392C71.067 14.8933 71.4483 14.4753 71.4483 14.138C71.4483 13.8007 71.0303 13.236 70.1943 12.444C69.373 11.652 68.5443 10.838 67.7083 10.002C66.887 9.15133 66.4763 8.49867 66.4763 8.044C66.4763 7.57467 66.557 7.06867 66.7183 6.526C66.8943 5.98333 67.107 5.60933 67.3563 5.404C68.1483 4.62667 69.1677 3.95933 70.4143 3.402C71.6757 2.83 72.783 2.544 73.7363 2.544C74.2937 2.544 74.7557 2.786 75.1223 3.27C75.489 3.73933 75.6723 4.23067 75.6723 4.744C75.6723 4.94933 75.5037 5.118 75.1663 5.25C74.8437 5.36733 74.367 5.492 73.7363 5.624C73.1203 5.756 72.4897 5.94667 71.8443 6.196C70.3483 6.75333 69.6003 7.22267 69.6003 7.604C69.6003 7.78 69.857 8.10267 70.3703 8.572C70.8837 9.02667 71.441 9.51067 72.0423 10.024C72.6583 10.5227 73.223 11.1607 73.7363 11.938C74.2497 12.7007 74.5063 13.4413 74.5063 14.16ZM78.967 2.148C78.967 1.532 79.209 1.224 79.693 1.224C80.089 1.224 80.5437 1.554 81.057 2.214C81.5703 2.874 81.827 3.43867 81.827 3.908C81.827 4.37733 81.7317 5.03733 81.541 5.888C81.3503 6.73867 81.1523 7.516 80.947 8.22C80.7563 8.924 80.463 9.92867 80.067 11.234C79.671 12.5247 79.3997 13.4267 79.253 13.94C80.2063 12.004 81.211 10.4273 82.267 9.21C83.3377 7.99267 84.2323 7.384 84.951 7.384C85.4057 7.384 85.9263 7.78733 86.513 8.594C87.0997 9.386 87.393 10.1047 87.393 10.75C87.393 11.3807 87.2757 12.3047 87.041 13.522C86.8063 14.7393 86.3957 15.9127 85.809 17.042C85.2223 18.1713 84.621 18.736 84.005 18.736C83.521 18.736 83.279 18.3913 83.279 17.702C83.279 17.2033 83.4257 16.3893 83.719 15.26C84.1443 13.5733 84.357 12.5467 84.357 12.18C84.357 11.8133 84.2983 11.63 84.181 11.63C83.3303 11.63 82.0837 13.0453 80.441 15.876C79.8837 16.844 79.4143 17.5627 79.033 18.032C78.6663 18.5013 78.3143 18.736 77.977 18.736C77.6397 18.736 77.229 18.4647 76.745 17.922C76.2757 17.3793 76.041 16.9613 76.041 16.668C76.041 16.36 76.0997 15.9127 76.217 15.326C76.349 14.7393 76.5397 13.9033 76.789 12.818C77.053 11.7327 77.4783 9.76733 78.065 6.922C78.6663 4.062 78.967 2.47067 78.967 2.148ZM91.7155 16.492C92.5075 16.14 93.1968 15.4287 93.7835 14.358C94.3701 13.2873 94.6635 12.2827 94.6635 11.344C94.6635 10.4053 94.5315 9.76 94.2675 9.408C93.6368 9.77467 93.0061 10.5447 92.3755 11.718C91.7595 12.8913 91.4515 13.9253 91.4515 14.82C91.4515 15.7 91.5395 16.2573 91.7155 16.492ZM88.5035 15.04C88.5035 13.2067 89.0681 11.4687 90.1975 9.826C91.3415 8.18333 92.4708 7.362 93.5855 7.362C94.7001 7.362 95.6388 7.758 96.4015 8.55C97.1641 9.32733 97.5455 10.2733 97.5455 11.388C97.5455 12.488 97.2815 13.61 96.7535 14.754C96.2255 15.898 95.4848 16.8513 94.5315 17.614C93.5781 18.362 92.5588 18.736 91.4735 18.736C90.6668 18.736 89.9701 18.3767 89.3835 17.658C88.7968 16.9393 88.5035 16.0667 88.5035 15.04ZM106.633 7.406C107.175 7.406 107.755 7.89 108.371 8.858C109.001 9.826 109.317 10.794 109.317 11.762C109.317 12.3487 109.067 13.0453 108.569 13.852C108.07 14.6587 107.439 15.4213 106.677 16.14C105.929 16.844 105.056 17.4453 104.059 17.944C103.076 18.4427 102.137 18.692 101.243 18.692H100.979C100.055 22.5347 99.402 24.456 99.0207 24.456C98.7127 24.456 98.39 24.1993 98.0527 23.686C97.7007 23.1727 97.5247 22.7473 97.5247 22.41C97.5247 22.0727 97.7373 21.0387 98.1627 19.308C99.424 14.1747 100.055 10.3027 100.055 7.692C100.055 7.252 100.267 7.032 100.693 7.032C101.045 7.032 101.492 7.23 102.035 7.626C102.577 8.022 102.915 8.53533 103.047 9.166C104.293 7.99267 105.489 7.406 106.633 7.406ZM101.661 16.074C102.805 15.854 103.883 15.2233 104.895 14.182C105.921 13.1407 106.435 12.2387 106.435 11.476C106.435 10.7133 106.222 10.332 105.797 10.332C105.181 10.332 104.528 10.684 103.839 11.388C103.56 11.6813 103.252 12.114 102.915 12.686C102.577 13.258 102.284 13.9253 102.035 14.688L101.661 16.074ZM118.471 7.406C119.013 7.406 119.593 7.89 120.209 8.858C120.839 9.826 121.155 10.794 121.155 11.762C121.155 12.3487 120.905 13.0453 120.407 13.852C119.908 14.6587 119.277 15.4213 118.515 16.14C117.767 16.844 116.894 17.4453 115.897 17.944C114.914 18.4427 113.975 18.692 113.081 18.692H112.817C111.893 22.5347 111.24 24.456 110.859 24.456C110.551 24.456 110.228 24.1993 109.891 23.686C109.539 23.1727 109.363 22.7473 109.363 22.41C109.363 22.0727 109.575 21.0387 110.001 19.308C111.262 14.1747 111.893 10.3027 111.893 7.692C111.893 7.252 112.105 7.032 112.531 7.032C112.883 7.032 113.33 7.23 113.873 7.626C114.415 8.022 114.753 8.53533 114.885 9.166C116.131 7.99267 117.327 7.406 118.471 7.406ZM113.499 16.074C114.643 15.854 115.721 15.2233 116.733 14.182C117.759 13.1407 118.273 12.2387 118.273 11.476C118.273 10.7133 118.06 10.332 117.635 10.332C117.019 10.332 116.366 10.684 115.677 11.388C115.398 11.6813 115.09 12.114 114.753 12.686C114.415 13.258 114.122 13.9253 113.873 14.688L113.499 16.074ZM132.178 11.498C132.178 12.2167 131.687 12.862 130.704 13.434C129.736 14.006 128.739 14.292 127.712 14.292C126.686 14.292 125.842 14.2187 125.182 14.072C125.05 14.468 124.984 14.864 124.984 15.26C124.984 15.656 125.05 15.942 125.182 16.118C125.314 16.2793 125.644 16.36 126.172 16.36C127.272 16.36 128.211 16.2573 128.988 16.052C129.78 15.8467 130.191 15.744 130.22 15.744C130.822 15.744 131.122 15.942 131.122 16.338C131.122 16.91 130.646 17.4527 129.692 17.966C128.754 18.4793 127.661 18.736 126.414 18.736C125.182 18.736 124.192 18.3473 123.444 17.57C122.696 16.7927 122.322 15.876 122.322 14.82C122.322 13.7493 122.63 12.6347 123.246 11.476C123.877 10.3173 124.662 9.34933 125.6 8.572C126.539 7.78 127.47 7.384 128.394 7.384C129.333 7.384 130.198 7.846 130.99 8.77C131.782 9.67933 132.178 10.5887 132.178 11.498ZM129.626 11.146C129.626 10.9993 129.472 10.7867 129.164 10.508C128.856 10.2293 128.563 10.09 128.284 10.09C128.02 10.09 127.676 10.288 127.25 10.684C126.825 11.0653 126.422 11.564 126.04 12.18C126.172 12.1947 126.363 12.202 126.612 12.202C128.622 12.202 129.626 11.85 129.626 11.146ZM134.275 11.102L134.143 8.616C134.143 7.79467 134.399 7.384 134.913 7.384C135.206 7.384 135.492 7.494 135.771 7.714C136.064 7.934 136.284 8.27867 136.431 8.748C136.929 8.308 137.472 7.956 138.059 7.692C138.66 7.41333 139.188 7.274 139.643 7.274C140.713 7.274 141.249 7.53067 141.249 8.044C141.249 8.308 141.197 8.506 141.095 8.638C141.007 8.75533 140.933 8.84333 140.875 8.902C140.831 8.96067 140.743 9.04133 140.611 9.144C140.493 9.232 140.405 9.298 140.347 9.342C140.009 9.562 139.767 9.716 139.621 9.804C138.961 10.2147 138.396 10.7133 137.927 11.3C137.457 11.872 137.105 12.6713 136.871 13.698C136.475 15.3847 136.086 16.646 135.705 17.482C135.338 18.3033 134.92 18.714 134.451 18.714C133.996 18.714 133.651 18.494 133.417 18.054C133.197 17.614 133.087 17.2033 133.087 16.822C133.087 16.426 133.226 15.8393 133.505 15.062C133.798 14.2847 133.996 13.6173 134.099 13.06C134.216 12.488 134.275 11.8353 134.275 11.102Z" fill="white"/>
</g>
<path d="M8.12665 17.042L7.64373 17.5488L7.64671 17.5516L8.12665 17.042ZM5.46465 13.324L6.11253 13.059L5.39764 11.3114L4.80057 13.1026L5.46465 13.324ZM4.98065 14.754L5.64074 14.987L5.64074 14.987L4.98065 14.754ZM4.58465 15.942L3.91879 15.726L3.91879 15.726L4.58465 15.942ZM4.16665 17.152L3.51425 16.8983L3.50801 16.9143L3.50257 16.9306L4.16665 17.152ZM3.85865 17.988L3.20871 17.728L3.20754 17.731L3.85865 17.988ZM1.98865 17.988L1.4475 18.432L1.45371 18.4396L1.46013 18.447L1.98865 17.988ZM1.79065 14.644L2.45059 14.8775L2.45304 14.8703L1.79065 14.644ZM3.50665 6.658L4.20535 6.7006L4.22762 6.33534L3.9404 6.10858L3.50665 6.658ZM4.12265 3.358L3.8499 2.71332L3.84691 2.7146L4.12265 3.358ZM11.8006 3.688L12.2043 3.11612L12.2043 3.11612L11.8006 3.688ZM12.5486 8.858L11.9595 8.48003L11.9576 8.48292L12.5486 8.858ZM10.9426 10.662L11.3603 11.2237L11.3626 11.222L10.9426 10.662ZM9.33665 11.828L8.93293 11.2561L8.92493 11.2619L9.33665 11.828ZM8.96265 13.522L8.39653 13.9337L8.40112 13.94L8.40585 13.9462L8.96265 13.522ZM9.95265 14.622L9.4576 15.1171L9.46643 15.1256L9.95265 14.622ZM11.0526 15.678L10.5699 16.1849L10.5764 16.1911L10.583 16.1971L11.0526 15.678ZM11.8006 16.382L11.3057 16.877L11.3148 16.8861L11.3243 16.895L11.8006 16.382ZM12.3946 16.976L11.8817 17.4523L11.895 17.4667L11.9091 17.4802L12.3946 16.976ZM6.05865 6.218L5.79454 5.56973L5.00569 5.89112L5.47386 6.60273L6.05865 6.218ZM6.25665 10.574L5.57425 10.418L5.15815 12.2385L6.66837 11.1401L6.25665 10.574ZM7.15865 9.958L7.54694 10.5404L7.55356 10.536L7.56007 10.5315L7.15865 9.958ZM8.17065 9.232L8.59067 9.79202L8.59586 9.78805L8.17065 9.232ZM9.00665 8.506L8.5242 7.99881L8.52389 7.9991L9.00665 8.506ZM12.2886 17.922C12.2886 17.9916 12.2767 18.0191 12.2752 18.0223C12.2743 18.0242 12.2742 18.0239 12.2748 18.0233C12.2752 18.0227 12.2733 18.0252 12.2664 18.0302C12.2301 18.0564 12.0898 18.124 11.7346 18.124V19.524C12.2155 19.524 12.7022 19.4413 13.0839 19.1668C13.5082 18.8616 13.6886 18.4047 13.6886 17.922H12.2886ZM11.7346 18.124C10.842 18.124 9.80326 17.6595 8.60659 16.5324L7.64671 17.5516C8.97271 18.8005 10.3393 19.524 11.7346 19.524V18.124ZM8.60956 16.5352C7.41796 15.3997 6.59549 14.2395 6.11253 13.059L4.81677 13.589C5.3898 14.9898 6.342 16.3083 7.64374 17.5488L8.60956 16.5352ZM4.80057 13.1026C4.56568 13.8073 4.40621 14.2783 4.32056 14.521L5.64074 14.987C5.73109 14.731 5.89429 14.2487 6.12873 13.5454L4.80057 13.1026ZM4.32056 14.521C4.22937 14.7794 4.09504 15.1826 3.91879 15.726L5.2505 16.158C5.42626 15.616 5.55593 15.2273 5.64074 14.987L4.32056 14.521ZM3.91879 15.726C3.74367 16.266 3.60936 16.6537 3.51425 16.8983L4.81905 17.4057C4.92927 17.1223 5.07362 16.7033 5.2505 16.158L3.91879 15.726ZM3.50257 16.9306C3.41944 17.18 3.32162 17.4458 3.20872 17.728L4.50858 18.248C4.63034 17.9436 4.73786 17.652 4.83073 17.3734L3.50257 16.9306ZM3.20754 17.731C3.107 17.9857 3.02685 18.1259 2.97768 18.1903C2.95434 18.2209 2.95568 18.2107 2.98773 18.1893C3.02457 18.1648 3.10563 18.124 3.22065 18.124V19.524C3.65771 19.524 3.94338 19.2326 4.09061 19.0397C4.25411 18.8254 4.39029 18.5477 4.50976 18.245L3.20754 17.731ZM3.22065 18.124C3.2438 18.124 3.19382 18.1315 3.0527 18.0358C2.9155 17.9427 2.73673 17.7818 2.51717 17.529L1.46013 18.447C1.72457 18.7515 1.99313 19.0087 2.2666 19.1942C2.53615 19.3771 2.86016 19.524 3.22065 19.524V18.124ZM2.5298 17.544C2.06988 16.9834 1.98465 16.6892 1.98465 16.602H0.584648C0.584648 17.2188 0.968752 17.8486 1.4475 18.432L2.5298 17.544ZM1.98465 16.602C1.98465 16.5167 2.00847 16.3348 2.08888 16.0236C2.16629 15.7241 2.28568 15.3434 2.45055 14.8775L1.13074 14.4105C0.95828 14.8979 0.824675 15.3202 0.733414 15.6734C0.645156 16.0149 0.584648 16.3353 0.584648 16.602H1.98465ZM2.45304 14.8703C3.4653 11.908 4.05398 9.18316 4.20535 6.7006L2.80795 6.6154C2.66599 8.94351 2.11066 11.5427 1.12825 14.4177L2.45304 14.8703ZM3.9404 6.10858C3.75142 5.95939 3.55751 5.73056 3.37056 5.39405L2.14674 6.07395C2.39979 6.52944 2.70454 6.91661 3.0729 7.20742L3.9404 6.10858ZM3.37056 5.39405C3.17222 5.03704 3.12865 4.83198 3.12865 4.744H1.72865C1.72865 5.18402 1.90508 5.63896 2.14674 6.07395L3.37056 5.39405ZM3.12865 4.744C3.12865 4.83946 3.07093 4.79294 3.29542 4.60927C3.50403 4.43858 3.85889 4.23262 4.39839 4.0014L3.84691 2.7146C3.25707 2.96738 2.76493 3.23441 2.40888 3.52573C2.0687 3.80406 1.72865 4.20854 1.72865 4.744H3.12865ZM4.3954 4.00268C5.43817 3.56151 6.65531 3.332 8.06065 3.332V1.932C6.50332 1.932 5.09513 2.18649 3.8499 2.71332L4.3954 4.00268ZM8.06065 3.332C9.44515 3.332 10.5421 3.65647 11.397 4.25988L12.2043 3.11612C11.0645 2.31153 9.66815 1.932 8.06065 1.932V3.332ZM11.397 4.25988C12.2261 4.84517 12.5966 5.55689 12.5966 6.438H13.9966C13.9966 5.06044 13.3698 3.93883 12.2043 3.11612L11.397 4.25988ZM12.5966 6.438C12.5966 7.12617 12.3936 7.80325 11.9595 8.48003L13.1378 9.23597C13.701 8.35808 13.9966 7.42183 13.9966 6.438H12.5966ZM11.9576 8.48292C11.5088 9.19012 11.0279 9.72304 10.5226 10.102L11.3626 11.222C12.0307 10.721 12.6205 10.0512 13.1397 9.23308L11.9576 8.48292ZM10.525 10.1003C9.95684 10.5227 9.42622 10.9079 8.93297 11.2561L9.74033 12.3999C10.2444 12.0441 10.7845 11.6519 11.3603 11.2237L10.525 10.1003ZM8.92493 11.2619C8.6748 11.4438 8.4657 11.6087 8.31288 11.7523C8.23781 11.8228 8.15787 11.9052 8.09154 11.9957C8.04633 12.0573 7.91065 12.2469 7.91065 12.51H9.31065C9.31065 12.6298 9.27691 12.7163 9.25985 12.754C9.24129 12.795 9.22383 12.819 9.22051 12.8236C9.21467 12.8315 9.22549 12.8158 9.27142 12.7727C9.3606 12.6889 9.5145 12.5642 9.74837 12.3941L8.92493 11.2619ZM7.91065 12.51C7.91065 13.0293 8.08696 13.5081 8.39653 13.9337L9.52876 13.1103C9.369 12.8906 9.31065 12.6947 9.31065 12.51H7.91065ZM8.40585 13.9462C8.66688 14.2888 9.02086 14.6802 9.45767 15.117L10.4476 14.127C10.0338 13.7132 9.72775 13.3712 9.51945 13.0978L8.40585 13.9462ZM9.46643 15.1256C9.89251 15.537 10.2604 15.8901 10.5699 16.1849L11.5354 15.1711C11.2289 14.8792 10.8635 14.5284 10.4389 14.1184L9.46643 15.1256ZM10.583 16.1971C10.8864 16.4716 11.1264 16.6977 11.3057 16.877L12.2956 15.887C12.0936 15.685 11.8349 15.4417 11.5223 15.1589L10.583 16.1971ZM11.3243 16.895C11.517 17.0739 11.7028 17.2596 11.8817 17.4523L12.9076 16.4997C12.7052 16.2817 12.495 16.0715 12.277 15.869L11.3243 16.895ZM11.9091 17.4802C12.0836 17.6483 12.1892 17.7782 12.2473 17.8707C12.3086 17.9683 12.2886 17.9788 12.2886 17.922H13.6886C13.6886 17.6159 13.5697 17.344 13.433 17.1263C13.2931 16.9035 13.1017 16.6851 12.8802 16.4718L11.9091 17.4802ZM10.6086 6.658C10.6086 6.38492 10.5402 6.11411 10.3826 5.87193C10.2273 5.63331 10.0114 5.46216 9.77676 5.34197C9.32771 5.11197 8.74303 5.034 8.10465 5.034V6.434C8.66893 6.434 8.98625 6.51003 9.13854 6.58803C9.20454 6.62184 9.21416 6.64318 9.2092 6.63557C9.20192 6.62439 9.20865 6.62308 9.20865 6.658H10.6086ZM8.10465 5.034C7.40882 5.034 6.6328 5.22822 5.79454 5.56973L6.32276 6.86626C7.0685 6.56244 7.65648 6.434 8.10465 6.434V5.034ZM5.47386 6.60273C5.79566 7.09187 5.90865 7.47171 5.90865 7.758H7.30865C7.30865 7.10562 7.05497 6.45879 6.64344 5.83327L5.47386 6.60273ZM5.90865 7.758C5.90865 8.54551 5.79986 9.43095 5.57425 10.418L6.93905 10.73C7.18277 9.66371 7.30865 8.67183 7.30865 7.758H5.90865ZM6.66837 11.1401C6.81661 11.0323 7.10607 10.8343 7.54694 10.5404L6.77036 9.37556C6.33122 9.66832 6.01935 9.88103 5.84493 10.0079L6.66837 11.1401ZM7.56007 10.5315C8.00212 10.222 8.3468 9.97489 8.59065 9.792L7.75065 8.672C7.52517 8.84111 7.19518 9.07797 6.75723 9.38454L7.56007 10.5315ZM8.59586 9.78805C8.87085 9.57776 9.16907 9.31798 9.48941 9.0129L8.52389 7.9991C8.22823 8.28068 7.96911 8.5049 7.74543 8.67595L8.59586 9.78805ZM9.4891 9.01319C10.1913 8.3452 10.6086 7.55652 10.6086 6.658H9.20865C9.20865 7.07948 9.02462 7.5228 8.5242 7.99881L9.4891 9.01319ZM22.6595 13.434L22.3074 12.829L22.3034 12.8314L22.6595 13.434ZM17.1375 14.072L17.2894 13.3887L16.6731 13.2517L16.4735 13.8506L17.1375 14.072ZM17.1375 16.118L16.5775 16.538L16.5864 16.5498L16.5958 16.5613L17.1375 16.118ZM20.9435 16.052L20.7679 15.3744L20.7648 15.3752L20.9435 16.052ZM21.6475 17.966L21.3157 17.3497L21.3117 17.3518L21.6475 17.966ZM15.3995 17.57L15.9039 17.0846L15.9039 17.0846L15.3995 17.57ZM15.2015 11.476L14.5867 11.1413L14.5835 11.1474L15.2015 11.476ZM17.5555 8.572L18.002 9.11116L18.0069 9.107L17.5555 8.572ZM22.9455 8.77L22.414 9.22557L22.4177 9.22975L22.9455 8.77ZM21.1195 10.508L20.6499 11.0271L20.6499 11.0271L21.1195 10.508ZM19.2055 10.684L19.6729 11.2053L19.6825 11.1963L19.2055 10.684ZM17.9955 12.18L17.4004 11.8116L16.8173 12.7534L17.9182 12.8757L17.9955 12.18ZM23.4335 11.498C23.4335 11.8446 23.2077 12.3049 22.3074 12.829L23.0117 14.039C24.0767 13.419 24.8335 12.5887 24.8335 11.498H23.4335ZM22.3034 12.8314C21.4327 13.3459 20.5572 13.592 19.6675 13.592V14.992C20.8312 14.992 21.9504 14.6661 23.0156 14.0366L22.3034 12.8314ZM19.6675 13.592C18.6685 13.592 17.881 13.5201 17.2894 13.3887L16.9857 14.7553C17.7141 14.9172 18.6132 14.992 19.6675 14.992V13.592ZM16.4735 13.8506C16.319 14.3141 16.2395 14.7848 16.2395 15.26H17.6395C17.6395 14.9432 17.6921 14.6219 17.8016 14.2934L16.4735 13.8506ZM16.2395 15.26C16.2395 15.7009 16.3067 16.1768 16.5775 16.538L17.6975 15.698C17.7062 15.7095 17.6891 15.6921 17.6711 15.6141C17.6533 15.5371 17.6395 15.4221 17.6395 15.26H16.2395ZM16.5958 16.5613C16.8017 16.813 17.0907 16.924 17.3178 16.9795C17.5585 17.0383 17.8348 17.06 18.1275 17.06V15.66C17.8923 15.66 17.7396 15.6414 17.6503 15.6195C17.5474 15.5944 17.6053 15.5843 17.6793 15.6747L16.5958 16.5613ZM18.1275 17.06C19.2674 17.06 20.2697 16.954 21.1223 16.7288L20.7648 15.3752C20.0627 15.5607 19.1877 15.66 18.1275 15.66V17.06ZM21.1192 16.7296C21.5147 16.6271 21.813 16.5507 22.0153 16.5001C22.1169 16.4747 22.1915 16.4565 22.2411 16.4449C22.2664 16.439 22.2811 16.4358 22.2878 16.4344C22.2916 16.4337 22.2882 16.4344 22.2807 16.4357C22.2769 16.4363 22.2678 16.4378 22.2555 16.4393C22.2481 16.4402 22.2167 16.444 22.1755 16.444V15.044C22.108 15.044 22.0508 15.0547 22.0505 15.0547C22.0333 15.0576 22.0173 15.0608 22.0055 15.0632C21.9811 15.0682 21.9526 15.0746 21.923 15.0816C21.8626 15.0957 21.7795 15.116 21.6758 15.1419C21.4674 15.194 21.1644 15.2716 20.7679 15.3744L21.1192 16.7296ZM22.1755 16.444C22.2897 16.444 22.3688 16.4536 22.4201 16.4648C22.4717 16.4762 22.4805 16.486 22.467 16.4771C22.4489 16.4652 22.4186 16.4376 22.3966 16.3943C22.376 16.3536 22.3775 16.3282 22.3775 16.338H23.7775C23.7775 15.9324 23.6062 15.551 23.237 15.3079C22.919 15.0985 22.5308 15.044 22.1755 15.044V16.444ZM22.3775 16.338C22.3775 16.4855 22.2424 16.8507 21.3157 17.3497L21.9794 18.5823C22.9594 18.0547 23.7775 17.3345 23.7775 16.338H22.3775ZM21.3117 17.3518C20.4918 17.8002 19.5183 18.036 18.3695 18.036V19.436C19.7141 19.436 20.9259 19.1585 21.9834 18.5802L21.3117 17.3518ZM18.3695 18.036C17.2983 18.036 16.5008 17.7049 15.9039 17.0846L14.8951 18.0554C15.7943 18.9898 16.9768 19.436 18.3695 19.436V18.036ZM15.9039 17.0846C15.2784 16.4346 14.9775 15.6907 14.9775 14.82H13.5775C13.5775 16.0613 14.0247 17.1507 14.8951 18.0554L15.9039 17.0846ZM14.9775 14.82C14.9775 13.887 15.2454 12.8846 15.8196 11.8046L14.5835 11.1474C13.9257 12.3847 13.5775 13.6117 13.5775 14.82H14.9775ZM15.8164 11.8107C16.408 10.7237 17.1374 9.82711 18.002 9.11113L17.1091 8.03287C16.0963 8.87156 15.2564 9.91092 14.5867 11.1413L15.8164 11.8107ZM18.0069 9.107C18.8613 8.38616 19.6384 8.084 20.3495 8.084V6.684C19.2127 6.684 18.1271 7.17384 17.1041 8.037L18.0069 9.107ZM20.3495 8.084C21.0269 8.084 21.7129 8.40749 22.4141 9.22555L23.477 8.31445C22.5942 7.28451 21.5495 6.684 20.3495 6.684V8.084ZM22.4177 9.22975C23.1354 10.0538 23.4335 10.8063 23.4335 11.498H24.8335C24.8335 10.3711 24.3397 9.30487 23.4734 8.31025L22.4177 9.22975ZM22.2815 11.146C22.2815 10.8482 22.1365 10.6088 22.033 10.4659C21.9159 10.3042 21.761 10.1444 21.5892 9.98892L20.6499 11.0271C20.786 11.1502 20.8622 11.2361 20.8991 11.2871C20.9168 11.3116 20.916 11.3151 20.9093 11.2994C20.9029 11.2846 20.8815 11.23 20.8815 11.146H22.2815ZM21.5892 9.98893C21.2141 9.64957 20.76 9.39 20.2395 9.39V10.79C20.2764 10.79 20.409 10.8091 20.6499 11.0271L21.5892 9.98893ZM20.2395 9.39C19.9385 9.39 19.6632 9.50005 19.4344 9.63153C19.1999 9.76621 18.9641 9.9524 18.7285 10.1717L19.6825 11.1963C19.8723 11.0196 20.0215 10.9088 20.1317 10.8455C20.2475 10.7789 20.2766 10.79 20.2395 10.79V9.39ZM18.7383 10.1628C18.252 10.5988 17.8079 11.1532 17.4004 11.8116L18.5907 12.5484C18.9459 11.9748 19.3084 11.5319 19.6728 11.2052L18.7383 10.1628ZM17.9182 12.8757C18.0892 12.8947 18.3106 12.902 18.5675 12.902V11.502C18.3258 11.502 18.1659 11.4946 18.0728 11.4843L17.9182 12.8757ZM18.5675 12.902C19.594 12.902 20.4433 12.8145 21.0595 12.5986C21.3707 12.4896 21.6712 12.3313 21.9003 12.0905C22.1449 11.8334 22.2815 11.5085 22.2815 11.146H20.8815C20.8815 11.1487 20.8815 11.1409 20.8863 11.1292C20.8909 11.1179 20.8944 11.1167 20.886 11.1255C20.864 11.1487 20.7877 11.2104 20.5966 11.2774C20.2081 11.4135 19.5504 11.502 18.5675 11.502V12.902ZM25.9877 11.894L25.3676 11.5692L25.3676 11.5692L25.9877 11.894ZM28.5177 8.726L28.0696 8.18823L28.0659 8.19134L28.5177 8.726ZM33.2037 8.418L32.6582 8.85676L32.663 8.86257L33.2037 8.418ZM32.7637 10.53L32.4389 11.1501L32.4389 11.1501L32.7637 10.53ZM30.4317 11.124L30.9071 11.6379L30.9076 11.6374L30.4317 11.124ZM28.8477 13.104L28.2485 12.7422L28.2465 12.7456L28.8477 13.104ZM28.4077 15.766L27.9645 16.3078L27.9759 16.3171L27.9877 16.326L28.4077 15.766ZM31.4217 15.788L31.2738 15.1038L31.2699 15.1047L31.4217 15.788ZM32.6097 15.436L32.9078 16.0694L32.9153 16.0658L32.9228 16.0621L32.6097 15.436ZM32.2357 17.746L32.5889 18.3504L32.5947 18.3469L32.2357 17.746ZM26.3837 17.548L25.9191 18.0717L25.9282 18.0795L26.3837 17.548ZM25.7197 15.282C25.7197 14.4014 25.9972 13.3845 26.6078 12.2188L25.3676 11.5692C24.6876 12.8675 24.3197 14.1093 24.3197 15.282H25.7197ZM26.6078 12.2188C27.212 11.0653 27.9987 10.081 28.9695 9.26066L28.0659 8.19134C26.954 9.13095 26.0541 10.2587 25.3676 11.5692L26.6078 12.2188ZM28.9659 9.26375C29.9411 8.45104 30.8219 8.106 31.6197 8.106V6.706C30.3936 6.706 29.2063 7.24096 28.0696 8.18824L28.9659 9.26375ZM31.6197 8.106C31.8113 8.106 32.1596 8.23679 32.6583 8.85673L33.7492 7.97927C33.1625 7.24988 32.4548 6.706 31.6197 6.706V8.106ZM32.663 8.86257C33.162 9.46949 33.3177 9.90791 33.3177 10.2H34.7177C34.7177 9.43609 34.3307 8.68651 33.7444 7.97343L32.663 8.86257ZM33.3177 10.2C33.3177 10.296 33.2944 10.2376 33.3714 10.1542C33.4096 10.1127 33.4522 10.089 33.483 10.0779C33.5098 10.0682 33.5164 10.072 33.4897 10.072V11.472C33.7887 11.472 34.1373 11.3884 34.4001 11.1038C34.6531 10.8297 34.7177 10.4853 34.7177 10.2H33.3177ZM33.4897 10.072C33.5025 10.072 33.4764 10.0737 33.3976 10.0474C33.3223 10.0223 33.2203 9.97896 33.0885 9.90992L32.4389 11.1501C32.7675 11.3222 33.136 11.472 33.4897 11.472V10.072ZM33.0885 9.90992C32.6883 9.70026 32.2622 9.588 31.8177 9.588V10.988C32.0186 10.988 32.2232 11.0371 32.4389 11.1501L33.0885 9.90992ZM31.8177 9.588C31.4698 9.588 31.1426 9.73177 30.8677 9.8976C30.5805 10.0708 30.2755 10.3143 29.9559 10.6106L30.9076 11.6374C31.1892 11.3763 31.416 11.2018 31.5908 11.0964C31.7779 10.9836 31.843 10.988 31.8177 10.988V9.588ZM29.9564 10.6101C29.3154 11.203 28.7472 11.9161 28.2485 12.7422L29.447 13.4658C29.8869 12.7372 30.3747 12.1303 30.9071 11.6379L29.9564 10.6101ZM28.2465 12.7456C27.7808 13.5267 27.4657 14.2673 27.4657 14.908H28.8657C28.8657 14.6687 29.0054 14.2066 29.449 13.4624L28.2465 12.7456ZM27.4657 14.908C27.4657 15.1646 27.4885 15.4157 27.5525 15.6425C27.6159 15.8671 27.7346 16.1197 27.9645 16.3078L28.851 15.2242C28.9195 15.2803 28.9173 15.3239 28.8999 15.2625C28.8832 15.2033 28.8657 15.0914 28.8657 14.908H27.4657ZM27.9877 16.326C28.2159 16.4971 28.5023 16.568 28.7367 16.6056C28.9929 16.6468 29.2978 16.664 29.6397 16.664V15.264C29.3364 15.264 29.1132 15.2482 28.9588 15.2234C28.7825 15.195 28.7755 15.1669 28.8277 15.206L27.9877 16.326ZM29.6397 16.664C30.3401 16.664 30.9862 16.6019 31.5736 16.4713L31.2699 15.1047C30.8012 15.2088 30.2594 15.264 29.6397 15.264V16.664ZM31.5697 16.4722C32.123 16.3525 32.5834 16.222 32.9078 16.0694L32.3117 14.8026C32.1374 14.8846 31.8058 14.9888 31.2738 15.1038L31.5697 16.4722ZM32.9228 16.0621C33.1291 15.9589 33.254 15.938 33.3137 15.938V14.538C32.9628 14.538 32.6183 14.6491 32.2967 14.8099L32.9228 16.0621ZM33.3137 15.938C33.3687 15.938 33.3912 15.9441 33.3909 15.9441C33.3887 15.9434 33.3582 15.9341 33.3202 15.9015C33.2798 15.8669 33.2529 15.8248 33.2388 15.7887C33.2264 15.7568 33.2297 15.7445 33.2297 15.766H34.6297C34.6297 15.4515 34.533 15.0971 34.2313 14.8385C33.9503 14.5976 33.6028 14.538 33.3137 14.538V15.938ZM33.2297 15.766C33.2297 15.8717 33.186 16.0426 32.9743 16.2899C32.7598 16.5407 32.4062 16.8288 31.8767 17.1451L32.5947 18.3469C33.1946 17.9886 33.688 17.6093 34.0381 17.2001C34.3912 16.7874 34.6297 16.3057 34.6297 15.766H33.2297ZM31.8825 17.1416C30.8432 17.749 29.8344 18.036 28.8477 18.036V19.436C30.1197 19.436 31.3696 19.063 32.5889 18.3504L31.8825 17.1416ZM28.8477 18.036C28.3784 18.036 27.7172 17.7691 26.8393 17.0165L25.9282 18.0795C26.8982 18.9109 27.8797 19.436 28.8477 19.436V18.036ZM26.8483 17.0243C25.9855 16.259 25.7197 15.6802 25.7197 15.282H24.3197C24.3197 16.2918 24.9633 17.2237 25.9192 18.0717L26.8483 17.0243ZM38.4454 3.468L37.9139 3.01244L37.9125 3.01407L38.4454 3.468ZM40.6454 4.04L40.0383 4.38851L40.0383 4.38851L40.6454 4.04ZM38.7754 6.042L39.2704 5.54702L39.2704 5.54702L38.7754 6.042ZM39.6334 8.264L39.0531 8.65569L39.0599 8.66542L39.6334 8.264ZM39.4794 12.972L38.8083 12.7729L38.8072 12.7767L39.4794 12.972ZM37.9834 17.856L37.3174 17.6403L37.3144 17.6501L37.9834 17.856ZM36.0474 18.362L35.5377 18.8418L35.5522 18.8572L35.5676 18.8717L36.0474 18.362ZM36.2454 14.512L35.5655 14.3452L35.5644 14.3499L36.2454 14.512ZM37.1034 10.552L36.4152 10.4235L36.414 10.4309L37.1034 10.552ZM37.6534 8.154L36.9911 7.92694L36.9874 7.93853L37.6534 8.154ZM38.6394 4.634C38.6394 4.47101 38.7095 4.23745 38.9783 3.92193L37.9125 3.01407C37.5066 3.49054 37.2394 4.03432 37.2394 4.634H38.6394ZM38.9769 3.92355C39.2828 3.56665 39.4427 3.552 39.4574 3.552V2.152C38.8267 2.152 38.312 2.54801 37.9139 3.01245L38.9769 3.92355ZM39.4574 3.552C39.3499 3.552 39.3636 3.49516 39.5124 3.64397C39.6481 3.77965 39.825 4.01694 40.0383 4.38851L41.2525 3.69149C41.0111 3.27106 40.7627 2.91435 40.5024 2.65402C40.2552 2.40683 39.9022 2.152 39.4574 2.152V3.552ZM40.0383 4.38851C40.2557 4.76712 40.4085 5.07754 40.5053 5.3242C40.6061 5.58118 40.6274 5.72258 40.6274 5.778H42.0274C42.0274 5.46675 41.935 5.13515 41.8085 4.8128C41.678 4.48013 41.4898 4.10488 41.2525 3.69149L40.0383 4.38851ZM40.6274 5.778C40.6274 5.95792 40.5772 6.0136 40.534 6.04872L41.4168 7.13528C41.8429 6.78906 42.0274 6.30208 42.0274 5.778H40.6274ZM40.534 6.04872C40.3966 6.16033 40.3058 6.178 40.2494 6.178V7.578C40.6917 7.578 41.0848 7.405 41.4168 7.13528L40.534 6.04872ZM40.2494 6.178C40.1154 6.178 39.7973 6.07396 39.2704 5.54702L38.2804 6.53697C38.8682 7.1247 39.5327 7.578 40.2494 7.578V6.178ZM39.2704 5.54702C39.0164 5.29306 38.8499 5.08239 38.7503 4.91462C38.649 4.74403 38.6394 4.65598 38.6394 4.634H37.2394C37.2394 4.99335 37.3691 5.33063 37.5465 5.62938C37.7256 5.93094 37.9771 6.23361 38.2804 6.53697L39.2704 5.54702ZM38.2694 8.084C38.468 8.084 38.7335 8.18201 39.0532 8.65563L40.2136 7.87237C39.7413 7.17266 39.0974 6.684 38.2694 6.684V8.084ZM39.0599 8.66542C39.4143 9.17162 39.5494 9.5985 39.5494 9.958H40.9494C40.9494 9.23217 40.6739 8.52972 40.2069 7.86258L39.0599 8.66542ZM39.5494 9.958C39.5494 9.95172 39.5467 10.0066 39.5149 10.1658C39.4862 10.3094 39.4413 10.502 39.3787 10.7472C39.2536 11.2369 39.064 11.9109 38.8083 12.7729L40.1505 13.1711C40.4081 12.3024 40.6035 11.6088 40.7351 11.0938C40.8008 10.8367 40.8522 10.6177 40.8877 10.4404C40.92 10.2788 40.9494 10.1036 40.9494 9.958H39.5494ZM38.8072 12.7767C38.3103 14.4866 37.8137 16.1077 37.3174 17.6404L38.6494 18.0716C39.1504 16.5243 39.6511 14.8894 40.1516 13.1673L38.8072 12.7767ZM37.3144 17.6501C37.2554 17.8418 37.1862 17.9198 37.146 17.9518C37.1118 17.979 37.0483 18.014 36.9054 18.014V19.414C37.3051 19.414 37.6927 19.306 38.0178 19.0472C38.3369 18.7932 38.5354 18.4422 38.6524 18.0619L37.3144 17.6501ZM36.9054 18.014C36.7727 18.014 36.6554 17.9729 36.5272 17.8523L35.5676 18.8717C35.9381 19.2204 36.3928 19.414 36.9054 19.414V18.014ZM36.5571 17.8822C36.459 17.7779 36.3954 17.641 36.3954 17.416H34.9954C34.9954 17.9537 35.1665 18.4474 35.5377 18.8418L36.5571 17.8822ZM36.3954 17.416C36.3954 17.2912 36.4287 17.009 36.5207 16.5233C36.6095 16.0543 36.7442 15.4391 36.9264 14.6741L35.5644 14.3499C35.3799 15.1249 35.2396 15.7637 35.1451 16.2627C35.0538 16.745 34.9954 17.1448 34.9954 17.416H36.3954ZM36.9252 14.6788C37.3088 13.1151 37.5986 11.7789 37.7928 10.6731L36.414 10.4309C36.2269 11.4958 35.9447 12.7996 35.5656 14.3452L36.9252 14.6788ZM37.7915 10.6804C37.9961 9.58464 38.1728 8.82268 38.3194 8.36947L36.9874 7.93853C36.8113 8.48265 36.6214 9.31936 36.4153 10.4236L37.7915 10.6804ZM38.3156 8.38103C38.3522 8.27424 38.3869 8.19099 38.4182 8.12778C38.45 8.06363 38.4739 8.02894 38.486 8.01379C38.4984 7.99825 38.4891 8.0149 38.4516 8.03677C38.409 8.06164 38.3451 8.084 38.2694 8.084V6.684C37.8635 6.684 37.5723 6.91487 37.3928 7.13921C37.2176 7.35816 37.0906 7.63703 36.9912 7.92697L38.3156 8.38103ZM51.2222 8.858L50.6316 9.23383L50.6357 9.24012L51.2222 8.858ZM51.4202 13.852L50.8248 13.4839L50.8248 13.4839L51.4202 13.852ZM49.5282 16.14L50.008 16.6497L50.0083 16.6495L49.5282 16.14ZM46.9102 17.944L46.5972 17.3179L46.5935 17.3198L46.9102 17.944ZM43.8302 18.692V17.992H43.2786L43.1496 18.5283L43.8302 18.692ZM40.9042 23.686L41.4893 23.3015L41.4816 23.2901L40.9042 23.686ZM41.0142 19.308L41.694 19.4751L41.694 19.475L41.0142 19.308ZM45.8982 9.166L45.2131 9.3094L45.4689 10.5314L46.378 9.67574L45.8982 9.166ZM44.5122 16.074L43.8364 15.8916L43.5446 16.9729L44.6444 16.7614L44.5122 16.074ZM47.7462 14.182L47.2478 13.6905L47.2442 13.6941L47.7462 14.182ZM46.6902 11.388L46.19 10.8982L46.1827 10.9059L46.6902 11.388ZM45.7662 12.686L46.3692 13.0416L46.3692 13.0416L45.7662 12.686ZM44.8862 14.688L44.2209 14.4705L44.2152 14.4879L44.2104 14.5056L44.8862 14.688ZM49.4842 8.106C49.5375 8.106 49.6644 8.1286 49.8769 8.3062C50.0905 8.48463 50.3444 8.78243 50.6317 9.23381L51.8128 8.48219C51.484 7.96556 51.1403 7.53737 50.7745 7.2318C50.4078 6.9254 49.9736 6.706 49.4842 6.706V8.106ZM50.6357 9.24012C51.2069 10.1167 51.4682 10.9541 51.4682 11.762H52.8682C52.8682 10.6339 52.4989 9.53525 51.8087 8.47588L50.6357 9.24012ZM51.4682 11.762C51.4682 12.1615 51.2932 12.7262 50.8248 13.4839L52.0157 14.2201C52.5446 13.3644 52.8682 12.5359 52.8682 11.762H51.4682ZM50.8248 13.4839C50.3614 14.2335 49.771 14.9494 49.0482 15.6305L50.0083 16.6495C50.8108 15.8932 51.4817 15.0838 52.0157 14.2201L50.8248 13.4839ZM49.0485 15.6303C48.3541 16.2838 47.5388 16.8471 46.5972 17.3179L47.2233 18.5701C48.2764 18.0436 49.2063 17.4042 50.008 16.6497L49.0485 15.6303ZM46.5935 17.3198C45.6866 17.78 44.8562 17.992 44.0942 17.992V19.392C45.1216 19.392 46.1685 19.1054 47.227 18.5682L46.5935 17.3198ZM44.0942 17.992H43.8302V19.392H44.0942V17.992ZM43.1496 18.5283C42.6889 20.4444 42.3007 21.8603 41.9849 22.7898C41.8256 23.259 41.6941 23.5756 41.5927 23.764C41.5406 23.8609 41.5135 23.8912 41.5167 23.8878C41.5195 23.8848 41.5453 23.8571 41.5965 23.8275C41.6499 23.7966 41.7451 23.756 41.8722 23.756V25.156C42.2149 25.156 42.441 24.9491 42.5392 24.844C42.6547 24.7206 42.7484 24.5707 42.8255 24.4275C42.9826 24.1356 43.1436 23.7317 43.3105 23.2402C43.6475 22.2483 44.0476 20.7822 44.5108 18.8557L43.1496 18.5283ZM41.8722 23.756C41.9228 23.756 41.9144 23.7788 41.835 23.7157C41.7528 23.6503 41.6351 23.5235 41.4892 23.3016L40.3192 24.0704C40.5107 24.3618 40.7231 24.6201 40.9635 24.8113C41.2068 25.0049 41.5136 25.156 41.8722 25.156V23.756ZM41.4816 23.2901C41.1513 22.8085 41.0762 22.5297 41.0762 22.41H39.6762C39.6762 22.965 39.9532 23.5368 40.3269 24.0819L41.4816 23.2901ZM41.0762 22.41C41.0762 22.3252 41.1121 22.0537 41.2214 21.5225C41.3251 21.0181 41.4822 20.3367 41.694 19.4751L40.3345 19.1409C40.1209 20.0099 39.959 20.7109 39.8501 21.2405C39.7467 21.7433 39.6762 22.1575 39.6762 22.41H41.0762ZM41.694 19.475C42.958 14.3308 43.6062 10.391 43.6062 7.692H42.2062C42.2062 10.2144 41.5931 14.0185 40.3345 19.141L41.694 19.475ZM43.6062 7.692C43.6062 7.63624 43.6132 7.61531 43.6124 7.61794C43.6117 7.61998 43.6087 7.62849 43.6015 7.64101C43.5941 7.65381 43.5834 7.66866 43.569 7.68351C43.5546 7.69841 43.5393 7.71046 43.5246 7.71956C43.5102 7.72852 43.4989 7.73307 43.4933 7.73501C43.4834 7.73844 43.4962 7.732 43.5442 7.732V6.332C43.2175 6.332 42.8454 6.41781 42.5625 6.71048C42.2838 6.99875 42.2062 7.36993 42.2062 7.692H43.6062ZM43.5442 7.732C43.6639 7.732 43.9579 7.81511 44.4736 8.19145L45.2989 7.06055C44.7293 6.64488 44.1285 6.332 43.5442 6.332V7.732ZM44.4736 8.19145C44.8829 8.49012 45.1182 8.85606 45.2131 9.3094L46.5834 9.0226C46.4143 8.2146 45.9749 7.55388 45.2989 7.06055L44.4736 8.19145ZM46.378 9.67574C47.558 8.56514 48.5897 8.106 49.4842 8.106V6.706C48.0908 6.706 46.7318 7.42019 45.4185 8.65626L46.378 9.67574ZM44.6444 16.7614C45.9606 16.5083 47.1611 15.7885 48.2482 14.6699L47.2442 13.6941C46.3074 14.6582 45.3519 15.1997 44.38 15.3866L44.6444 16.7614ZM48.2447 14.6735C49.2958 13.6074 49.9862 12.5314 49.9862 11.476H48.5862C48.5862 11.9459 48.2501 12.6739 47.2478 13.6905L48.2447 14.6735ZM49.9862 11.476C49.9862 11.0525 49.9312 10.6233 49.7381 10.2771C49.6357 10.0934 49.4888 9.92356 49.2865 9.80265C49.0833 9.68117 48.8624 9.632 48.6482 9.632V11.032C48.649 11.032 48.64 11.0321 48.6241 11.028C48.6076 11.0238 48.5881 11.0162 48.5682 11.0044C48.5254 10.9788 48.5115 10.952 48.5154 10.9589C48.5216 10.97 48.5411 11.0119 48.5582 11.1034C48.5749 11.1936 48.5862 11.3158 48.5862 11.476H49.9862ZM48.6482 9.632C47.7576 9.632 46.9349 10.1376 46.1901 10.8983L47.1904 11.8777C47.8243 11.2304 48.3069 11.032 48.6482 11.032V9.632ZM46.1827 10.9059C45.8518 11.2542 45.5127 11.7378 45.1633 12.3304L46.3692 13.0416C46.6944 12.4902 46.9713 12.1085 47.1977 11.8701L46.1827 10.9059ZM45.1633 12.3304C44.7956 12.954 44.4828 13.6693 44.2209 14.4705L45.5516 14.9055C45.7883 14.1814 46.0623 13.562 46.3692 13.0416L45.1633 12.3304ZM44.2104 14.5056L43.8364 15.8916L45.1881 16.2564L45.5621 14.8704L44.2104 14.5056ZM61.7181 13.434L61.366 12.829L61.362 12.8314L61.7181 13.434ZM56.1961 14.072L56.348 13.3887L55.7317 13.2517L55.5321 13.8506L56.1961 14.072ZM56.1961 16.118L55.6361 16.538L55.645 16.5498L55.6544 16.5613L56.1961 16.118ZM60.0021 16.052L59.8265 15.3744L59.8234 15.3752L60.0021 16.052ZM60.7061 17.966L60.3743 17.3497L60.3703 17.3518L60.7061 17.966ZM54.4581 17.57L54.9625 17.0846L54.9625 17.0846L54.4581 17.57ZM54.2601 11.476L53.6453 11.1413L53.6421 11.1474L54.2601 11.476ZM56.6141 8.572L57.0606 9.11116L57.0655 9.107L56.6141 8.572ZM62.0041 8.77L61.4726 9.22557L61.4763 9.22975L62.0041 8.77ZM60.1781 10.508L59.7085 11.0271L59.7085 11.0271L60.1781 10.508ZM58.2641 10.684L58.7315 11.2053L58.7411 11.1963L58.2641 10.684ZM57.0541 12.18L56.4589 11.8116L55.8759 12.7534L56.9768 12.8757L57.0541 12.18ZM62.4921 11.498C62.4921 11.8446 62.2663 12.3049 61.366 12.829L62.0703 14.039C63.1353 13.419 63.8921 12.5887 63.8921 11.498H62.4921ZM61.362 12.8314C60.4913 13.3459 59.6158 13.592 58.7261 13.592V14.992C59.8898 14.992 61.009 14.6661 62.0742 14.0366L61.362 12.8314ZM58.7261 13.592C57.7271 13.592 56.9395 13.5201 56.348 13.3887L56.0443 14.7553C56.7727 14.9172 57.6718 14.992 58.7261 14.992V13.592ZM55.5321 13.8506C55.3776 14.3141 55.2981 14.7848 55.2981 15.26H56.6981C56.6981 14.9432 56.7507 14.6219 56.8602 14.2934L55.5321 13.8506ZM55.2981 15.26C55.2981 15.7009 55.3653 16.1768 55.6361 16.538L56.7561 15.698C56.7648 15.7095 56.7477 15.6921 56.7297 15.6141C56.7119 15.5371 56.6981 15.4221 56.6981 15.26H55.2981ZM55.6544 16.5613C55.8603 16.813 56.1493 16.924 56.3764 16.9795C56.6171 17.0383 56.8934 17.06 57.1861 17.06V15.66C56.9509 15.66 56.7982 15.6414 56.7089 15.6195C56.606 15.5944 56.6639 15.5843 56.7379 15.6747L55.6544 16.5613ZM57.1861 17.06C58.326 17.06 59.3283 16.954 60.1809 16.7288L59.8234 15.3752C59.1213 15.5607 58.2463 15.66 57.1861 15.66V17.06ZM60.1778 16.7296C60.5733 16.6271 60.8716 16.5507 61.0739 16.5001C61.1755 16.4747 61.2501 16.4565 61.2997 16.4449C61.325 16.439 61.3397 16.4358 61.3464 16.4344C61.3502 16.4337 61.3468 16.4344 61.3392 16.4357C61.3355 16.4363 61.3264 16.4378 61.3141 16.4393C61.3067 16.4402 61.2753 16.444 61.2341 16.444V15.044C61.1666 15.044 61.1094 15.0547 61.1091 15.0547C61.0919 15.0576 61.0759 15.0608 61.0641 15.0632C61.0397 15.0682 61.0112 15.0746 60.9816 15.0816C60.9211 15.0957 60.8381 15.116 60.7344 15.1419C60.526 15.194 60.223 15.2716 59.8265 15.3744L60.1778 16.7296ZM61.2341 16.444C61.3482 16.444 61.4274 16.4536 61.4787 16.4648C61.5303 16.4762 61.5391 16.486 61.5256 16.4771C61.5075 16.4652 61.4772 16.4376 61.4552 16.3943C61.4346 16.3536 61.4361 16.3282 61.4361 16.338H62.8361C62.8361 15.9324 62.6648 15.551 62.2956 15.3079C61.9776 15.0985 61.5894 15.044 61.2341 15.044V16.444ZM61.4361 16.338C61.4361 16.4855 61.301 16.8507 60.3743 17.3497L61.038 18.5823C62.018 18.0547 62.8361 17.3345 62.8361 16.338H61.4361ZM60.3703 17.3518C59.5504 17.8002 58.5769 18.036 57.4281 18.036V19.436C58.7727 19.436 59.9845 19.1585 61.042 18.5802L60.3703 17.3518ZM57.4281 18.036C56.3569 18.036 55.5594 17.7049 54.9625 17.0846L53.9537 18.0554C54.8529 18.9898 56.0354 19.436 57.4281 19.436V18.036ZM54.9625 17.0846C54.337 16.4346 54.0361 15.6907 54.0361 14.82H52.6361C52.6361 16.0613 53.0833 17.1507 53.9537 18.0554L54.9625 17.0846ZM54.0361 14.82C54.0361 13.887 54.304 12.8846 54.8782 11.8046L53.6421 11.1474C52.9842 12.3847 52.6361 13.6117 52.6361 14.82H54.0361ZM54.875 11.8107C55.4666 10.7237 56.196 9.82711 57.0606 9.11113L56.1677 8.03287C55.1549 8.87156 54.315 9.91092 53.6453 11.1413L54.875 11.8107ZM57.0655 9.107C57.9199 8.38616 58.697 8.084 59.4081 8.084V6.684C58.2713 6.684 57.1857 7.17384 56.1627 8.037L57.0655 9.107ZM59.4081 8.084C60.0855 8.084 60.7715 8.40749 61.4727 9.22555L62.5356 8.31445C61.6528 7.28451 60.6081 6.684 59.4081 6.684V8.084ZM61.4763 9.22975C62.194 10.0538 62.4921 10.8063 62.4921 11.498H63.8921C63.8921 10.3711 63.3983 9.30487 62.532 8.31025L61.4763 9.22975ZM61.3401 11.146C61.3401 10.8482 61.1951 10.6088 61.0916 10.4659C60.9745 10.3042 60.8196 10.1444 60.6478 9.98892L59.7085 11.0271C59.8446 11.1502 59.9208 11.2361 59.9577 11.2871C59.9754 11.3116 59.9746 11.3151 59.9679 11.2994C59.9615 11.2846 59.9401 11.23 59.9401 11.146H61.3401ZM60.6478 9.98893C60.2727 9.64957 59.8186 9.39 59.2981 9.39V10.79C59.335 10.79 59.4676 10.8091 59.7085 11.0271L60.6478 9.98893ZM59.2981 9.39C58.9971 9.39 58.7218 9.50005 58.4929 9.63153C58.2585 9.76621 58.0227 9.9524 57.7871 10.1717L58.7411 11.1963C58.9309 11.0196 59.0801 10.9088 59.1903 10.8455C59.3061 10.7789 59.3352 10.79 59.2981 10.79V9.39ZM57.7969 10.1628C57.3106 10.5988 56.8665 11.1532 56.4589 11.8116L57.6493 12.5484C58.0045 11.9748 58.367 11.5319 58.7314 11.2052L57.7969 10.1628ZM56.9768 12.8757C57.1478 12.8947 57.3692 12.902 57.6261 12.902V11.502C57.3844 11.502 57.2245 11.4946 57.1314 11.4843L56.9768 12.8757ZM57.6261 12.902C58.6526 12.902 59.5019 12.8145 60.1181 12.5986C60.4293 12.4896 60.7298 12.3313 60.9589 12.0905C61.2035 11.8334 61.3401 11.5085 61.3401 11.146H59.9401C59.9401 11.1487 59.9401 11.1409 59.9448 11.1292C59.9495 11.1179 59.9529 11.1167 59.9446 11.1255C59.9226 11.1487 59.8463 11.2104 59.6552 11.2774C59.2667 11.4135 58.609 11.502 57.6261 11.502V12.902ZM72.7243 17.372L73.1454 17.9312L73.1454 17.9312L72.7243 17.372ZM64.9583 17.592L64.5127 18.1319L64.5221 18.1394L64.9583 17.592ZM66.6303 15.612L66.2103 16.1721L66.2186 16.1781L66.6303 15.612ZM70.3043 15.392L70.6874 15.9779L70.6874 15.9779L70.3043 15.392ZM70.1943 12.444L69.7084 12.9479L69.7129 12.9522L70.1943 12.444ZM67.7083 10.002L67.2047 10.4883L67.2133 10.497L67.7083 10.002ZM66.7183 6.526L66.0525 6.31005L66.0498 6.31825L66.0473 6.32652L66.7183 6.526ZM67.3563 5.404L67.8013 5.94435L67.8249 5.92495L67.8466 5.90358L67.3563 5.404ZM70.4143 3.402L70.7 4.04105L70.7034 4.03951L70.4143 3.402ZM75.1223 3.27L74.5643 3.69275L74.5707 3.70095L75.1223 3.27ZM75.1663 5.25L75.4055 5.90786L75.4135 5.90496L75.4214 5.90187L75.1663 5.25ZM73.7363 5.624L73.5929 4.93884L73.5897 4.93954L73.7363 5.624ZM71.8443 6.196L72.0887 6.852L72.0966 6.84896L71.8443 6.196ZM70.3703 8.572L69.8979 9.08868L69.9062 9.09601L70.3703 8.572ZM72.0423 10.024L71.5878 10.5564L71.5948 10.5623L71.6019 10.5681L72.0423 10.024ZM73.7363 11.938L73.1522 12.3238L73.1556 12.3289L73.7363 11.938ZM73.8063 14.16C73.8063 15.1431 73.3537 16.0217 72.3032 16.8128L73.1454 17.9312C74.4709 16.933 75.2063 15.6702 75.2063 14.16H73.8063ZM72.3032 16.8128C71.2399 17.6136 70.0319 18.014 68.6543 18.014V19.414C70.3274 19.414 71.8328 18.9197 73.1454 17.9312L72.3032 16.8128ZM68.6543 18.014C67.2438 18.014 66.179 17.6696 65.3946 17.0446L64.5221 18.1394C65.615 19.0104 67.0142 19.414 68.6543 19.414V18.014ZM65.4039 17.0521C64.561 16.3564 64.2723 15.7504 64.2723 15.238H62.8723C62.8723 16.3389 63.5076 17.3023 64.5127 18.1319L65.4039 17.0521ZM64.2723 15.238C64.2723 15.0672 64.2845 14.9358 64.3029 14.8379C64.3216 14.7386 64.3435 14.6904 64.3526 14.6742C64.3594 14.6622 64.3494 14.6842 64.3123 14.7061C64.2745 14.7285 64.2472 14.728 64.2543 14.728V13.328C63.7686 13.328 63.3679 13.57 63.133 13.9868C62.9312 14.3449 62.8723 14.7919 62.8723 15.238H64.2723ZM64.2543 14.728C64.3626 14.728 64.5672 14.7821 64.8795 15.0704L65.8291 14.0416C65.3788 13.6259 64.85 13.328 64.2543 13.328V14.728ZM64.8795 15.0704C65.2804 15.4404 65.7244 15.8075 66.2103 16.172L67.0503 15.052C66.5976 14.7125 66.1909 14.3756 65.8291 14.0416L64.8795 15.0704ZM66.2186 16.1781C66.8229 16.6176 67.5098 16.84 68.2583 16.84V15.44C67.8042 15.44 67.4058 15.3104 67.042 15.0459L66.2186 16.1781ZM68.2583 16.84C69.049 16.84 69.8656 16.5152 70.6874 15.9779L69.9212 14.8061C69.2177 15.2661 68.6703 15.44 68.2583 15.44V16.84ZM70.6874 15.9779C71.092 15.7133 71.4325 15.447 71.6795 15.1763C71.9136 14.9196 72.1483 14.5666 72.1483 14.138H70.7483C70.7483 14.0468 70.7924 14.0714 70.6452 14.2327C70.5108 14.38 70.2793 14.572 69.9212 14.8061L70.6874 15.9779ZM72.1483 14.138C72.1483 13.7261 71.9166 13.3411 71.6974 13.045C71.4537 12.7157 71.1072 12.3446 70.6757 11.9358L69.7129 12.9522C70.1174 13.3354 70.398 13.6426 70.5722 13.878C70.771 14.1466 70.7483 14.2126 70.7483 14.138H72.1483ZM70.6802 11.9401C69.862 11.1512 69.0364 10.3401 68.2033 9.50702L67.2133 10.497C68.0522 11.3359 68.8839 12.1528 69.7084 12.9479L70.6802 11.9401ZM68.2119 9.51578C67.819 9.10885 67.5467 8.7718 67.3768 8.50171C67.1983 8.2181 67.1763 8.07659 67.1763 8.044H65.7763C65.7763 8.46608 65.9596 8.87823 66.1918 9.24729C66.4326 9.62987 66.7763 10.0445 67.2047 10.4882L68.2119 9.51578ZM67.1763 8.044C67.1763 7.65444 67.2434 7.21627 67.3893 6.72548L66.0473 6.32652C65.8706 6.92106 65.7763 7.49489 65.7763 8.044H67.1763ZM67.3842 6.74195C67.5465 6.24138 67.7072 6.02188 67.8013 5.94435L66.9113 4.86365C66.5068 5.19679 66.2421 5.72528 66.0525 6.31005L67.3842 6.74195ZM67.8466 5.90358C68.5673 5.19623 69.5124 4.57198 70.7 4.04105L70.1286 2.76295C68.8229 3.34669 67.7293 4.05711 66.866 4.90442L67.8466 5.90358ZM70.7034 4.03951C71.9118 3.49152 72.9173 3.244 73.7363 3.244V1.844C72.6487 1.844 71.4395 2.16848 70.1252 2.76449L70.7034 4.03951ZM73.7363 3.244C74.0528 3.244 74.3163 3.36532 74.5644 3.6927L75.6803 2.8473C75.195 2.20668 74.5345 1.844 73.7363 1.844V3.244ZM74.5707 3.70095C74.8573 4.0678 74.9723 4.41111 74.9723 4.744H76.3723C76.3723 4.05022 76.1207 3.41086 75.6739 2.83905L74.5707 3.70095ZM74.9723 4.744C74.9723 4.6962 74.9828 4.64714 75.0026 4.60335C75.0215 4.56149 75.0427 4.53762 75.0508 4.52953C75.0581 4.52225 75.0545 4.52788 75.0301 4.54235C75.0061 4.55663 74.9679 4.57597 74.9112 4.59813L75.4214 5.90187C75.8052 5.75168 76.3723 5.4183 76.3723 4.744H74.9723ZM74.9271 4.59214C74.6519 4.69222 74.214 4.80886 73.5929 4.93885L73.8797 6.30915C74.52 6.17514 75.0354 6.04244 75.4055 5.90786L74.9271 4.59214ZM73.5897 4.93954C72.9344 5.07995 72.2684 5.28172 71.592 5.54304L72.0966 6.84896C72.7109 6.61161 73.3063 6.43204 73.883 6.30846L73.5897 4.93954ZM71.5999 5.54004C70.8369 5.82431 70.2236 6.10055 69.7893 6.37305C69.5732 6.50863 69.3707 6.66211 69.2149 6.83926C69.0621 7.013 68.9003 7.27241 68.9003 7.604H70.3003C70.3003 7.74492 70.232 7.80267 70.2663 7.76373C70.2975 7.72822 70.3754 7.65803 70.5334 7.55894C70.8471 7.36212 71.3557 7.12503 72.0887 6.85196L71.5999 5.54004ZM68.9003 7.604C68.9003 7.80651 68.9701 7.97509 69.0261 8.08385C69.0864 8.20117 69.1643 8.31226 69.245 8.41377C69.4066 8.61695 69.6298 8.84347 69.898 9.08862L70.8427 8.05538C70.5975 7.8312 70.4357 7.66172 70.3406 7.54223C70.2931 7.48241 70.2746 7.45049 70.2708 7.44315C70.2627 7.42725 70.3003 7.48949 70.3003 7.604H68.9003ZM69.9062 9.09601C70.4232 9.55389 70.9837 10.0407 71.5878 10.5564L72.4968 9.4916C71.8982 8.98063 71.3442 8.49944 70.8344 8.04799L69.9062 9.09601ZM71.6019 10.5681C72.1534 11.0145 72.6716 11.596 73.1522 12.3237L74.3204 11.5523C73.7744 10.7253 73.1633 10.0308 72.4828 9.47993L71.6019 10.5681ZM73.1556 12.3289C73.6128 13.0081 73.8063 13.6148 73.8063 14.16H75.2063C75.2063 13.2679 74.8865 12.3932 74.317 11.5471L73.1556 12.3289ZM81.057 2.214L80.5044 2.64376L80.5044 2.64376L81.057 2.214ZM81.541 5.888L82.224 6.0411L82.224 6.0411L81.541 5.888ZM80.947 8.22L80.2749 8.02396L80.2713 8.03701L80.947 8.22ZM80.067 11.234L80.7362 11.4393L80.7368 11.4372L80.067 11.234ZM79.253 13.94L78.5799 13.7477L79.881 14.2492L79.253 13.94ZM82.267 9.21L81.7414 8.74769L81.7382 8.75131L82.267 9.21ZM86.513 8.594L85.9469 9.00574L85.9505 9.01066L86.513 8.594ZM87.041 13.522L86.3536 13.3895L86.3536 13.3895L87.041 13.522ZM85.809 17.042L85.1878 16.7193L85.1878 16.7193L85.809 17.042ZM83.719 15.26L84.3965 15.436L84.3977 15.4312L83.719 15.26ZM80.441 15.876L79.8355 15.5247L79.8344 15.5267L80.441 15.876ZM79.033 18.032L78.4896 17.5905L78.4814 17.601L79.033 18.032ZM76.745 17.922L76.2155 18.38L76.2226 18.3879L76.745 17.922ZM76.217 15.326L75.5341 15.1723L75.5322 15.1805L75.5306 15.1887L76.217 15.326ZM76.789 12.818L76.1088 12.6525L76.1068 12.6613L76.789 12.818ZM78.065 6.922L77.38 6.77797L77.3794 6.78064L78.065 6.922ZM79.667 2.148C79.667 2.03754 79.6781 1.96481 79.6895 1.9211C79.7007 1.87856 79.7092 1.87439 79.6989 1.88747C79.6859 1.90401 79.666 1.91884 79.6488 1.92616C79.6358 1.93167 79.6451 1.924 79.693 1.924V0.523999C79.2921 0.523999 78.8829 0.660072 78.5981 1.02252C78.3385 1.35284 78.267 1.76738 78.267 2.148H79.667ZM79.693 1.924C79.6933 1.924 79.7101 1.92386 79.7478 1.93849C79.7868 1.95362 79.8441 1.98307 79.9198 2.03801C80.0747 2.15041 80.2705 2.34302 80.5044 2.64376L81.6095 1.78424C81.3301 1.42498 81.042 1.12259 80.7422 0.904989C80.4437 0.688365 80.089 0.523999 79.693 0.523999V1.924ZM80.5044 2.64376C80.9885 3.2661 81.127 3.67574 81.127 3.908H82.527C82.527 3.20159 82.1522 2.4819 81.6095 1.78424L80.5044 2.64376ZM81.127 3.908C81.127 4.29933 81.0452 4.89951 80.8579 5.7349L82.224 6.0411C82.4181 5.17516 82.527 4.45533 82.527 3.908H81.127ZM80.8579 5.7349C80.6699 6.57375 80.4755 7.33652 80.275 8.024L81.619 8.416C81.8291 7.69548 82.0307 6.90358 82.224 6.0411L80.8579 5.7349ZM80.2713 8.03701C80.0834 8.73076 79.7925 9.72748 79.3971 11.0308L80.7368 11.4372C81.1335 10.1299 81.4292 9.11724 81.6227 8.40299L80.2713 8.03701ZM79.3978 11.0287C79.0019 12.3191 78.7287 13.2271 78.5799 13.7477L79.9261 14.1323C80.0706 13.6263 80.3401 12.7302 80.7362 11.4393L79.3978 11.0287ZM79.881 14.2492C80.8161 12.3501 81.7898 10.8283 82.7958 9.66869L81.7382 8.75131C80.6322 10.0263 79.5965 11.6579 78.625 13.6308L79.881 14.2492ZM82.7926 9.6723C83.3063 9.08822 83.7538 8.67844 84.1347 8.41926C84.5211 8.15642 84.7866 8.084 84.951 8.084V6.684C84.3968 6.684 83.8556 6.91591 83.3472 7.26174C82.8335 7.61123 82.2983 8.11444 81.7414 8.7477L82.7926 9.6723ZM84.951 8.084C84.9671 8.084 85.0629 8.09203 85.2538 8.23988C85.4424 8.38596 85.6746 8.63139 85.9469 9.00572L87.0791 8.18228C86.7647 7.74995 86.4433 7.39037 86.1112 7.13311C85.7814 6.87764 85.3896 6.684 84.951 6.684V8.084ZM85.9505 9.01066C86.4922 9.742 86.693 10.3152 86.693 10.75H88.093C88.093 9.89415 87.7071 9.02999 87.0755 8.17734L85.9505 9.01066ZM86.693 10.75C86.693 11.3118 86.5863 12.1826 86.3536 13.3895L87.7283 13.6545C87.965 12.4268 88.093 11.4495 88.093 10.75H86.693ZM86.3536 13.3895C86.1321 14.5388 85.7442 15.6482 85.1878 16.7193L86.4302 17.3647C87.0471 16.1771 87.4806 14.9398 87.7283 13.6545L86.3536 13.3895ZM85.1878 16.7193C84.9133 17.2477 84.6595 17.595 84.4388 17.8022C84.223 18.0049 84.0816 18.036 84.005 18.036V19.436C84.5444 19.436 85.0117 19.1848 85.3972 18.8228C85.7778 18.4653 86.118 17.9656 86.4302 17.3647L85.1878 16.7193ZM84.005 18.036C83.9669 18.036 83.9673 18.0294 83.9876 18.039C84.0114 18.0503 84.0279 18.0674 84.0334 18.0753C84.0358 18.0787 84.0209 18.0588 84.0059 17.9949C83.9909 17.9307 83.979 17.8356 83.979 17.702H82.579C82.579 18.1072 82.6462 18.536 82.8876 18.8797C83.1607 19.2687 83.5742 19.436 84.005 19.436V18.036ZM83.979 17.702C83.979 17.3012 84.1036 16.5638 84.3965 15.436L83.0415 15.084C82.7477 16.2149 82.579 17.1055 82.579 17.702H83.979ZM84.3977 15.4312C84.6115 14.5835 84.7737 13.8943 84.8829 13.367C84.9873 12.8632 85.057 12.4462 85.057 12.18H83.657C83.657 12.2805 83.6203 12.5602 83.512 13.083C83.4086 13.5823 83.2518 14.2498 83.0402 15.0888L84.3977 15.4312ZM85.057 12.18C85.057 11.9773 85.0429 11.7517 84.9797 11.5542C84.9264 11.3876 84.7213 10.93 84.181 10.93V12.33C84.1017 12.33 84.0178 12.3139 83.9369 12.2778C83.8572 12.2422 83.7965 12.1944 83.753 12.1491C83.6729 12.0657 83.6489 11.989 83.6463 11.9808C83.6418 11.9667 83.657 12.0161 83.657 12.18H85.057ZM84.181 10.93C83.7761 10.93 83.4019 11.096 83.0772 11.3151C82.7479 11.5374 82.4165 11.8499 82.0827 12.2288C81.4149 12.987 80.6658 14.094 79.8356 15.5247L81.0464 16.2273C81.8589 14.8273 82.5544 13.8113 83.1333 13.1542C83.4228 12.8255 83.6653 12.6072 83.8603 12.4756C84.0599 12.3409 84.1605 12.33 84.181 12.33V10.93ZM79.8344 15.5267C79.2829 16.4846 78.8355 17.165 78.4897 17.5906L79.5763 18.4734C79.9931 17.9604 80.4845 17.2034 81.0476 16.2253L79.8344 15.5267ZM78.4814 17.601C78.15 18.0252 77.979 18.036 77.977 18.036V19.436C78.6496 19.436 79.1826 18.9775 79.5846 18.463L78.4814 17.601ZM77.977 18.036C77.995 18.036 77.9425 18.0414 77.8019 17.9485C77.6647 17.8579 77.4864 17.7016 77.2674 17.4561L76.2226 18.3879C76.4876 18.6851 76.7566 18.9358 77.0301 19.1165C77.3001 19.2949 77.6216 19.436 77.977 19.436V18.036ZM77.2744 17.4641C77.057 17.2127 76.9134 17.012 76.8274 16.8588C76.7356 16.6953 76.741 16.6413 76.741 16.668H75.341C75.341 16.988 75.4638 17.2897 75.6066 17.5442C75.7553 17.809 75.9637 18.0887 76.2155 18.3799L77.2744 17.4641ZM76.741 16.668C76.741 16.4311 76.7883 16.0386 76.9034 15.4633L75.5306 15.1887C75.411 15.7868 75.341 16.2889 75.341 16.668H76.741ZM76.8999 15.4797C77.0316 14.8945 77.222 14.0597 77.4712 12.9747L76.1068 12.6613C75.8574 13.7469 75.6664 14.5841 75.5341 15.1723L76.8999 15.4797ZM77.4692 12.9834C77.7365 11.8846 78.164 9.90799 78.7506 7.06336L77.3794 6.78064C76.7926 9.62668 76.3695 11.5807 76.1088 12.6526L77.4692 12.9834ZM78.75 7.06603C79.051 5.63442 79.2777 4.51613 79.4293 3.71346C79.5051 3.31255 79.5629 2.98602 79.6021 2.7365C79.6383 2.50644 79.667 2.29244 79.667 2.148H78.267C78.267 2.14587 78.2664 2.17284 78.2577 2.24679C78.2497 2.3145 78.2371 2.40461 78.2191 2.51924C78.1831 2.74823 78.1282 3.05878 78.0537 3.45354C77.9047 4.2422 77.6803 5.34958 77.38 6.77797L78.75 7.06603ZM91.7155 16.492L91.1555 16.912L91.4901 17.3582L91.9998 17.1317L91.7155 16.492ZM93.7835 14.358L94.3974 14.6944L94.3974 14.6944L93.7835 14.358ZM94.2675 9.408L94.8275 8.988L94.4539 8.4899L93.9156 8.80284L94.2675 9.408ZM92.3755 11.718L91.7589 11.3866L91.7557 11.3926L92.3755 11.718ZM90.1975 9.826L89.623 9.42595L89.6206 9.42943L90.1975 9.826ZM96.4015 8.55L95.8972 9.03557L95.9018 9.04024L96.4015 8.55ZM96.7535 14.754L96.1179 14.4607L96.1179 14.4607L96.7535 14.754ZM94.5315 17.614L94.9636 18.1647L94.9688 18.1606L94.5315 17.614ZM89.3835 17.658L89.9257 17.2153L89.9257 17.2153L89.3835 17.658ZM91.9998 17.1317C92.979 16.6965 93.7664 15.8459 94.3974 14.6944L93.1696 14.0216C92.6272 15.0114 92.0359 15.5835 91.4312 15.8523L91.9998 17.1317ZM94.3974 14.6944C95.024 13.5507 95.3635 12.4304 95.3635 11.344H93.9635C93.9635 12.135 93.7163 13.024 93.1696 14.0216L94.3974 14.6944ZM95.3635 11.344C95.3635 10.3929 95.2403 9.5384 94.8275 8.988L93.7075 9.828C93.8227 9.9816 93.9635 10.4178 93.9635 11.344H95.3635ZM93.9156 8.80284C93.1142 9.26882 92.4075 10.1799 91.7589 11.3866L92.9921 12.0494C93.6048 10.9094 94.1595 10.2805 94.6193 10.0132L93.9156 8.80284ZM91.7557 11.3926C91.1104 12.6217 90.7515 13.7705 90.7515 14.82H92.1515C92.1515 14.0802 92.4085 13.1609 92.9953 12.0434L91.7557 11.3926ZM90.7515 14.82C90.7515 15.2787 90.7741 15.6783 90.826 16.0072C90.8743 16.3126 90.961 16.6526 91.1555 16.912L92.2755 16.072C92.294 16.0967 92.2487 16.0407 92.2089 15.7888C92.1728 15.5604 92.1515 15.2413 92.1515 14.82H90.7515ZM89.2035 15.04C89.2035 13.3607 89.7179 11.7592 90.7743 10.2226L89.6206 9.42943C88.4184 11.1781 87.8035 13.0526 87.8035 15.04H89.2035ZM90.7719 10.226C91.886 8.62629 92.8327 8.062 93.5855 8.062V6.662C92.1089 6.662 90.7969 7.74037 89.6231 9.42595L90.7719 10.226ZM93.5855 8.062C94.5129 8.062 95.2686 8.3827 95.8973 9.03555L96.9057 8.06445C96.009 7.1333 94.8874 6.662 93.5855 6.662V8.062ZM95.9018 9.04024C96.5327 9.68329 96.8455 10.4518 96.8455 11.388H98.2455C98.2455 10.0948 97.7956 8.97137 96.9011 8.05976L95.9018 9.04024ZM96.8455 11.388C96.8455 12.373 96.6096 13.3953 96.1179 14.4607L97.389 15.0473C97.9533 13.8247 98.2455 12.603 98.2455 11.388H96.8455ZM96.1179 14.4607C95.6339 15.5093 94.9599 16.3748 94.0942 17.0674L94.9688 18.1606C96.0097 17.3278 96.817 16.2867 97.389 15.0473L96.1179 14.4607ZM94.0994 17.0633C93.2541 17.7265 92.3839 18.036 91.4735 18.036V19.436C92.7337 19.436 93.9022 18.9975 94.9636 18.1647L94.0994 17.0633ZM91.4735 18.036C90.91 18.036 90.4018 17.7986 89.9257 17.2153L88.8412 18.1007C89.5384 18.9548 90.4236 19.436 91.4735 19.436V18.036ZM89.9257 17.2153C89.4521 16.6351 89.2035 15.9237 89.2035 15.04H87.8035C87.8035 16.2097 88.1415 17.2435 88.8412 18.1007L89.9257 17.2153ZM108.371 8.858L107.78 9.23383L107.784 9.24012L108.371 8.858ZM108.569 13.852L107.973 13.4839L107.973 13.4839L108.569 13.852ZM106.677 16.14L107.156 16.6497L107.157 16.6495L106.677 16.14ZM104.059 17.944L103.746 17.3179L103.742 17.3198L104.059 17.944ZM100.979 18.692V17.992H100.427L100.298 18.5283L100.979 18.692ZM98.0527 23.686L98.6378 23.3015L98.63 23.2901L98.0527 23.686ZM98.1627 19.308L98.8425 19.4751L98.8425 19.475L98.1627 19.308ZM103.047 9.166L102.362 9.3094L102.617 10.5314L103.526 9.67574L103.047 9.166ZM101.661 16.074L100.985 15.8916L100.693 16.9729L101.793 16.7614L101.661 16.074ZM104.895 14.182L104.396 13.6905L104.393 13.6941L104.895 14.182ZM103.839 11.388L103.338 10.8982L103.331 10.9059L103.839 11.388ZM102.915 12.686L103.518 13.0416L103.518 13.0416L102.915 12.686ZM102.035 14.688L101.369 14.4705L101.364 14.4879L101.359 14.5056L102.035 14.688ZM106.633 8.106C106.686 8.106 106.813 8.1286 107.025 8.3062C107.239 8.48463 107.493 8.78243 107.78 9.23381L108.961 8.48219C108.632 7.96556 108.289 7.53737 107.923 7.2318C107.556 6.9254 107.122 6.706 106.633 6.706V8.106ZM107.784 9.24012C108.355 10.1167 108.617 10.9541 108.617 11.762H110.017C110.017 10.6339 109.647 9.53525 108.957 8.47588L107.784 9.24012ZM108.617 11.762C108.617 12.1615 108.442 12.7262 107.973 13.4839L109.164 14.2201C109.693 13.3644 110.017 12.5359 110.017 11.762H108.617ZM107.973 13.4839C107.51 14.2335 106.919 14.9494 106.197 15.6305L107.157 16.6495C107.959 15.8932 108.63 15.0838 109.164 14.2201L107.973 13.4839ZM106.197 15.6303C105.503 16.2838 104.687 16.8471 103.746 17.3179L104.372 18.5701C105.425 18.0436 106.355 17.4042 107.156 16.6497L106.197 15.6303ZM103.742 17.3198C102.835 17.78 102.005 17.992 101.243 17.992V19.392C102.27 19.392 103.317 19.1054 104.375 18.5682L103.742 17.3198ZM101.243 17.992H100.979V19.392H101.243V17.992ZM100.298 18.5283C99.8373 20.4444 99.4491 21.8603 99.1334 22.7898C98.974 23.259 98.8426 23.5756 98.7411 23.764C98.689 23.8609 98.662 23.8912 98.6651 23.8878C98.6679 23.8848 98.6938 23.8571 98.7449 23.8275C98.7984 23.7966 98.8935 23.756 99.0207 23.756V25.156C99.3633 25.156 99.5894 24.9491 99.6877 24.844C99.8031 24.7206 99.8969 24.5707 99.974 24.4275C100.131 24.1356 100.292 23.7317 100.459 23.2402C100.796 22.2483 101.196 20.7822 101.659 18.8557L100.298 18.5283ZM99.0207 23.756C99.0713 23.756 99.0628 23.7788 98.9834 23.7157C98.9012 23.6503 98.7835 23.5235 98.6377 23.3016L97.4677 24.0704C97.6592 24.3618 97.8715 24.6201 98.1119 24.8113C98.3552 25.0049 98.6621 25.156 99.0207 25.156V23.756ZM98.63 23.2901C98.2997 22.8085 98.2247 22.5297 98.2247 22.41H96.8247C96.8247 22.965 97.1016 23.5368 97.4754 24.0819L98.63 23.2901ZM98.2247 22.41C98.2247 22.3252 98.2606 22.0537 98.3698 21.5225C98.4736 21.0181 98.6307 20.3367 98.8425 19.4751L97.4829 19.1409C97.2693 20.0099 97.1075 20.7109 96.9985 21.2405C96.8951 21.7433 96.8247 22.1575 96.8247 22.41H98.2247ZM98.8425 19.475C100.106 14.3308 100.755 10.391 100.755 7.692H99.3547C99.3547 10.2144 98.7416 14.0185 97.4829 19.141L98.8425 19.475ZM100.755 7.692C100.755 7.63624 100.762 7.61531 100.761 7.61794C100.76 7.61998 100.757 7.62849 100.75 7.64101C100.743 7.65381 100.732 7.66866 100.717 7.68351C100.703 7.69841 100.688 7.71046 100.673 7.71956C100.659 7.72852 100.647 7.73307 100.642 7.73501C100.632 7.73844 100.645 7.732 100.693 7.732V6.332C100.366 6.332 99.9938 6.41781 99.7109 6.71048C99.4322 6.99875 99.3547 7.36993 99.3547 7.692H100.755ZM100.693 7.732C100.812 7.732 101.106 7.81511 101.622 8.19145L102.447 7.06055C101.878 6.64488 101.277 6.332 100.693 6.332V7.732ZM101.622 8.19145C102.031 8.49012 102.267 8.85606 102.362 9.3094L103.732 9.0226C103.563 8.2146 103.123 7.55388 102.447 7.06055L101.622 8.19145ZM103.526 9.67574C104.706 8.56514 105.738 8.106 106.633 8.106V6.706C105.239 6.706 103.88 7.42019 102.567 8.65626L103.526 9.67574ZM101.793 16.7614C103.109 16.5083 104.31 15.7885 105.397 14.6699L104.393 13.6941C103.456 14.6582 102.5 15.1997 101.528 15.3866L101.793 16.7614ZM105.393 14.6735C106.444 13.6074 107.135 12.5314 107.135 11.476H105.735C105.735 11.9459 105.398 12.6739 104.396 13.6905L105.393 14.6735ZM107.135 11.476C107.135 11.0525 107.08 10.6233 106.887 10.2771C106.784 10.0934 106.637 9.92356 106.435 9.80265C106.232 9.68117 106.011 9.632 105.797 9.632V11.032C105.797 11.032 105.788 11.0321 105.773 11.028C105.756 11.0238 105.737 11.0162 105.717 11.0044C105.674 10.9788 105.66 10.952 105.664 10.9589C105.67 10.97 105.69 11.0119 105.707 11.1034C105.723 11.1936 105.735 11.3158 105.735 11.476H107.135ZM105.797 9.632C104.906 9.632 104.083 10.1376 103.339 10.8983L104.339 11.8777C104.973 11.2304 105.455 11.032 105.797 11.032V9.632ZM103.331 10.9059C103 11.2542 102.661 11.7378 102.312 12.3304L103.518 13.0416C103.843 12.4902 104.12 12.1085 104.346 11.8701L103.331 10.9059ZM102.312 12.3304C101.944 12.954 101.631 13.6693 101.369 14.4705L102.7 14.9055C102.937 14.1814 103.211 13.562 103.518 13.0416L102.312 12.3304ZM101.359 14.5056L100.985 15.8916L102.337 16.2564L102.711 14.8704L101.359 14.5056ZM120.209 8.858L119.618 9.23383L119.622 9.24012L120.209 8.858ZM120.407 13.852L119.811 13.4839L119.811 13.4839L120.407 13.852ZM118.515 16.14L118.994 16.6497L118.995 16.6495L118.515 16.14ZM115.897 17.944L115.584 17.3179L115.58 17.3198L115.897 17.944ZM112.817 18.692V17.992H112.265L112.136 18.5283L112.817 18.692ZM109.891 23.686L110.476 23.3015L110.468 23.2901L109.891 23.686ZM110.001 19.308L110.68 19.4751L110.68 19.475L110.001 19.308ZM114.885 9.166L114.199 9.3094L114.455 10.5314L115.364 9.67574L114.885 9.166ZM113.499 16.074L112.823 15.8916L112.531 16.9729L113.631 16.7614L113.499 16.074ZM116.733 14.182L116.234 13.6905L116.231 13.6941L116.733 14.182ZM115.677 11.388L115.176 10.8982L115.169 10.9059L115.677 11.388ZM114.753 12.686L115.356 13.0416L115.356 13.0416L114.753 12.686ZM113.873 14.688L113.207 14.4705L113.202 14.4879L113.197 14.5056L113.873 14.688ZM118.471 8.106C118.524 8.106 118.651 8.1286 118.863 8.3062C119.077 8.48463 119.331 8.78243 119.618 9.23381L120.799 8.48219C120.47 7.96556 120.127 7.53737 119.761 7.2318C119.394 6.9254 118.96 6.706 118.471 6.706V8.106ZM119.622 9.24012C120.193 10.1167 120.455 10.9541 120.455 11.762H121.855C121.855 10.6339 121.485 9.53525 120.795 8.47588L119.622 9.24012ZM120.455 11.762C120.455 12.1615 120.28 12.7262 119.811 13.4839L121.002 14.2201C121.531 13.3644 121.855 12.5359 121.855 11.762H120.455ZM119.811 13.4839C119.348 14.2335 118.757 14.9494 118.035 15.6305L118.995 16.6495C119.797 15.8932 120.468 15.0838 121.002 14.2201L119.811 13.4839ZM118.035 15.6303C117.34 16.2838 116.525 16.8471 115.584 17.3179L116.21 18.5701C117.263 18.0436 118.193 17.4042 118.994 16.6497L118.035 15.6303ZM115.58 17.3198C114.673 17.78 113.843 17.992 113.081 17.992V19.392C114.108 19.392 115.155 19.1054 116.213 18.5682L115.58 17.3198ZM113.081 17.992H112.817V19.392H113.081V17.992ZM112.136 18.5283C111.675 20.4444 111.287 21.8603 110.971 22.7898C110.812 23.259 110.68 23.5756 110.579 23.764C110.527 23.8609 110.5 23.8912 110.503 23.8878C110.506 23.8848 110.532 23.8571 110.583 23.8275C110.636 23.7966 110.731 23.756 110.859 23.756V25.156C111.201 25.156 111.427 24.9491 111.526 24.844C111.641 24.7206 111.735 24.5707 111.812 24.4275C111.969 24.1356 112.13 23.7317 112.297 23.2402C112.634 22.2483 113.034 20.7822 113.497 18.8557L112.136 18.5283ZM110.859 23.756C110.909 23.756 110.901 23.7788 110.821 23.7157C110.739 23.6503 110.621 23.5235 110.476 23.3016L109.306 24.0704C109.497 24.3618 109.709 24.6201 109.95 24.8113C110.193 25.0049 110.5 25.156 110.859 25.156V23.756ZM110.468 23.2901C110.138 22.8085 110.063 22.5297 110.063 22.41H108.663C108.663 22.965 108.94 23.5368 109.313 24.0819L110.468 23.2901ZM110.063 22.41C110.063 22.3252 110.098 22.0537 110.208 21.5225C110.311 21.0181 110.469 20.3367 110.68 19.4751L109.321 19.1409C109.107 20.0099 108.945 20.7109 108.836 21.2405C108.733 21.7433 108.663 22.1575 108.663 22.41H110.063ZM110.68 19.475C111.944 14.3308 112.593 10.391 112.593 7.692H111.193C111.193 10.2144 110.579 14.0185 109.321 19.141L110.68 19.475ZM112.593 7.692C112.593 7.63624 112.6 7.61531 112.599 7.61794C112.598 7.61998 112.595 7.62849 112.588 7.64101C112.58 7.65381 112.57 7.66866 112.555 7.68351C112.541 7.69841 112.526 7.71046 112.511 7.71956C112.497 7.72852 112.485 7.73307 112.48 7.73501C112.47 7.73844 112.483 7.732 112.531 7.732V6.332C112.204 6.332 111.832 6.41781 111.549 6.71048C111.27 6.99875 111.193 7.36993 111.193 7.692H112.593ZM112.531 7.732C112.65 7.732 112.944 7.81511 113.46 8.19145L114.285 7.06055C113.716 6.64488 113.115 6.332 112.531 6.332V7.732ZM113.46 8.19145C113.869 8.49012 114.105 8.85606 114.199 9.3094L115.57 9.0226C115.401 8.2146 114.961 7.55388 114.285 7.06055L113.46 8.19145ZM115.364 9.67574C116.544 8.56514 117.576 8.106 118.471 8.106V6.706C117.077 6.706 115.718 7.42019 114.405 8.65626L115.364 9.67574ZM113.631 16.7614C114.947 16.5083 116.147 15.7885 117.235 14.6699L116.231 13.6941C115.294 14.6582 114.338 15.1997 113.366 15.3866L113.631 16.7614ZM117.231 14.6735C118.282 13.6074 118.973 12.5314 118.973 11.476H117.573C117.573 11.9459 117.236 12.6739 116.234 13.6905L117.231 14.6735ZM118.973 11.476C118.973 11.0525 118.918 10.6233 118.724 10.2771C118.622 10.0934 118.475 9.92356 118.273 9.80265C118.07 9.68117 117.849 9.632 117.635 9.632V11.032C117.635 11.032 117.626 11.0321 117.61 11.028C117.594 11.0238 117.574 11.0162 117.555 11.0044C117.512 10.9788 117.498 10.952 117.502 10.9589C117.508 10.97 117.527 11.0119 117.544 11.1034C117.561 11.1936 117.573 11.3158 117.573 11.476H118.973ZM117.635 9.632C116.744 9.632 115.921 10.1376 115.176 10.8983L116.177 11.8777C116.811 11.2304 117.293 11.032 117.635 11.032V9.632ZM115.169 10.9059C114.838 11.2542 114.499 11.7378 114.15 12.3304L115.356 13.0416C115.681 12.4902 115.958 12.1085 116.184 11.8701L115.169 10.9059ZM114.15 12.3304C113.782 12.954 113.469 13.6693 113.207 14.4705L114.538 14.9055C114.775 14.1814 115.049 13.562 115.356 13.0416L114.15 12.3304ZM113.197 14.5056L112.823 15.8916L114.174 16.2564L114.548 14.8704L113.197 14.5056ZM130.704 13.434L130.352 12.829L130.348 12.8314L130.704 13.434ZM125.182 14.072L125.334 13.3887L124.718 13.2517L124.518 13.8506L125.182 14.072ZM125.182 16.118L124.622 16.538L124.631 16.5498L124.641 16.5613L125.182 16.118ZM128.988 16.052L128.813 15.3744L128.81 15.3752L128.988 16.052ZM129.692 17.966L129.361 17.3497L129.357 17.3518L129.692 17.966ZM123.444 17.57L123.949 17.0846L123.949 17.0846L123.444 17.57ZM123.246 11.476L122.632 11.1413L122.628 11.1474L123.246 11.476ZM125.6 8.572L126.047 9.11116L126.052 9.107L125.6 8.572ZM130.99 8.77L130.459 9.22557L130.463 9.22975L130.99 8.77ZM129.164 10.508L128.695 11.0271L128.695 11.0271L129.164 10.508ZM127.25 10.684L127.718 11.2053L127.727 11.1963L127.25 10.684ZM126.04 12.18L125.445 11.8116L124.862 12.7534L125.963 12.8757L126.04 12.18ZM131.478 11.498C131.478 11.8446 131.253 12.3049 130.352 12.829L131.057 14.039C132.122 13.419 132.878 12.5887 132.878 11.498H131.478ZM130.348 12.8314C129.478 13.3459 128.602 13.592 127.712 13.592V14.992C128.876 14.992 129.995 14.6661 131.061 14.0366L130.348 12.8314ZM127.712 13.592C126.713 13.592 125.926 13.5201 125.334 13.3887L125.031 14.7553C125.759 14.9172 126.658 14.992 127.712 14.992V13.592ZM124.518 13.8506C124.364 14.3141 124.284 14.7848 124.284 15.26H125.684C125.684 14.9432 125.737 14.6219 125.847 14.2934L124.518 13.8506ZM124.284 15.26C124.284 15.7009 124.352 16.1768 124.622 16.538L125.742 15.698C125.751 15.7095 125.734 15.6921 125.716 15.6141C125.698 15.5371 125.684 15.4221 125.684 15.26H124.284ZM124.641 16.5613C124.847 16.813 125.136 16.924 125.363 16.9795C125.603 17.0383 125.88 17.06 126.172 17.06V15.66C125.937 15.66 125.785 15.6414 125.695 15.6195C125.592 15.5944 125.65 15.5843 125.724 15.6747L124.641 16.5613ZM126.172 17.06C127.312 17.06 128.315 16.954 129.167 16.7288L128.81 15.3752C128.108 15.5607 127.233 15.66 126.172 15.66V17.06ZM129.164 16.7296C129.56 16.6271 129.858 16.5507 130.06 16.5001C130.162 16.4747 130.236 16.4565 130.286 16.4449C130.311 16.439 130.326 16.4358 130.333 16.4344C130.337 16.4337 130.333 16.4344 130.326 16.4357C130.322 16.4363 130.313 16.4378 130.3 16.4393C130.293 16.4402 130.262 16.444 130.22 16.444V15.044C130.153 15.044 130.096 15.0547 130.095 15.0547C130.078 15.0576 130.062 15.0608 130.05 15.0632C130.026 15.0682 129.998 15.0746 129.968 15.0816C129.907 15.0957 129.824 15.116 129.721 15.1419C129.512 15.194 129.209 15.2716 128.813 15.3744L129.164 16.7296ZM130.22 16.444C130.335 16.444 130.414 16.4536 130.465 16.4648C130.517 16.4762 130.525 16.486 130.512 16.4771C130.494 16.4652 130.463 16.4376 130.442 16.3943C130.421 16.3536 130.422 16.3282 130.422 16.338H131.822C131.822 15.9324 131.651 15.551 131.282 15.3079C130.964 15.0985 130.576 15.044 130.22 15.044V16.444ZM130.422 16.338C130.422 16.4855 130.287 16.8507 129.361 17.3497L130.024 18.5823C131.004 18.0547 131.822 17.3345 131.822 16.338H130.422ZM129.357 17.3518C128.537 17.8002 127.563 18.036 126.414 18.036V19.436C127.759 19.436 128.971 19.1585 130.028 18.5802L129.357 17.3518ZM126.414 18.036C125.343 18.036 124.546 17.7049 123.949 17.0846L122.94 18.0554C123.839 18.9898 125.022 19.436 126.414 19.436V18.036ZM123.949 17.0846C123.323 16.4346 123.022 15.6907 123.022 14.82H121.622C121.622 16.0613 122.07 17.1507 122.94 18.0554L123.949 17.0846ZM123.022 14.82C123.022 13.887 123.29 12.8846 123.865 11.8046L122.628 11.1474C121.971 12.3847 121.622 13.6117 121.622 14.82H123.022ZM123.861 11.8107C124.453 10.7237 125.182 9.82711 126.047 9.11113L125.154 8.03287C124.141 8.87156 123.301 9.91092 122.632 11.1413L123.861 11.8107ZM126.052 9.107C126.906 8.38616 127.683 8.084 128.394 8.084V6.684C127.258 6.684 126.172 7.17384 125.149 8.037L126.052 9.107ZM128.394 8.084C129.072 8.084 129.758 8.40749 130.459 9.22555L131.522 8.31445C130.639 7.28451 129.594 6.684 128.394 6.684V8.084ZM130.463 9.22975C131.18 10.0538 131.478 10.8063 131.478 11.498H132.878C132.878 10.3711 132.385 9.30487 131.518 8.31025L130.463 9.22975ZM130.326 11.146C130.326 10.8482 130.181 10.6088 130.078 10.4659C129.961 10.3042 129.806 10.1444 129.634 9.98892L128.695 11.0271C128.831 11.1502 128.907 11.2361 128.944 11.2871C128.962 11.3116 128.961 11.3151 128.954 11.2994C128.948 11.2846 128.926 11.23 128.926 11.146H130.326ZM129.634 9.98893C129.259 9.64957 128.805 9.39 128.284 9.39V10.79C128.321 10.79 128.454 10.8091 128.695 11.0271L129.634 9.98893ZM128.284 9.39C127.983 9.39 127.708 9.50005 127.479 9.63153C127.245 9.76621 127.009 9.9524 126.773 10.1717L127.727 11.1963C127.917 11.0196 128.066 10.9088 128.177 10.8455C128.292 10.7789 128.322 10.79 128.284 10.79V9.39ZM126.783 10.1628C126.297 10.5988 125.853 11.1532 125.445 11.8116L126.636 12.5484C126.991 11.9748 127.353 11.5319 127.718 11.2052L126.783 10.1628ZM125.963 12.8757C126.134 12.8947 126.355 12.902 126.612 12.902V11.502C126.371 11.502 126.211 11.4946 126.118 11.4843L125.963 12.8757ZM126.612 12.902C127.639 12.902 128.488 12.8145 129.104 12.5986C129.416 12.4896 129.716 12.3313 129.945 12.0905C130.19 11.8334 130.326 11.5085 130.326 11.146H128.926C128.926 11.1487 128.926 11.1409 128.931 11.1292C128.936 11.1179 128.939 11.1167 128.931 11.1255C128.909 11.1487 128.833 11.2104 128.642 11.2774C128.253 11.4135 127.595 11.502 126.612 11.502V12.902ZM134.275 11.102H134.975V11.0834L134.974 11.0649L134.275 11.102ZM134.143 8.616H133.443V8.63457L133.444 8.65312L134.143 8.616ZM135.771 7.714L135.337 8.26342L135.344 8.26879L135.351 8.274L135.771 7.714ZM136.431 8.748L135.763 8.95679L136.084 9.987L136.894 9.27289L136.431 8.748ZM138.059 7.692L138.346 8.33038L138.353 8.32712L138.059 7.692ZM141.095 8.638L140.542 8.20818L140.535 8.218L141.095 8.638ZM140.875 8.902L140.38 8.40703L140.344 8.4422L140.315 8.482L140.875 8.902ZM140.611 9.144L141.031 9.70409L141.04 9.69655L140.611 9.144ZM140.347 9.342L140.729 9.92833L140.748 9.91578L140.767 9.902L140.347 9.342ZM139.621 9.804L139.26 9.20368L139.251 9.20966L139.621 9.804ZM137.927 11.3L138.468 11.7441L138.473 11.7373L137.927 11.3ZM136.871 13.698L137.552 13.858L137.553 13.854L136.871 13.698ZM135.705 17.482L135.068 17.1915L135.065 17.1966L135.705 17.482ZM133.417 18.054L132.791 18.367L132.795 18.3753L132.799 18.3834L133.417 18.054ZM133.505 15.062L132.85 14.8148L132.846 14.8258L133.505 15.062ZM134.099 13.06L133.413 12.9193L133.41 12.9332L134.099 13.06ZM134.974 11.0649L134.842 8.57888L133.444 8.65312L133.576 11.1391L134.974 11.0649ZM134.843 8.616C134.843 8.25559 134.903 8.10412 134.929 8.063C134.935 8.05256 134.929 8.06615 134.905 8.07865C134.884 8.09019 134.879 8.084 134.913 8.084V6.684C134.432 6.684 134.007 6.89661 133.742 7.321C133.511 7.69054 133.443 8.15507 133.443 8.616H134.843ZM134.913 8.084C135.018 8.084 135.155 8.11977 135.337 8.26342L136.204 7.16458C135.829 6.86823 135.394 6.684 134.913 6.684V8.084ZM135.351 8.274C135.492 8.38024 135.645 8.5805 135.763 8.95679L137.099 8.53921C136.923 7.97684 136.636 7.48776 136.191 7.154L135.351 8.274ZM136.894 9.27289C137.342 8.87773 137.825 8.56459 138.346 8.33035L137.771 7.05365C137.119 7.34741 136.517 7.73827 135.968 8.22311L136.894 9.27289ZM138.353 8.32712C138.901 8.07317 139.325 7.974 139.643 7.974V6.574C139.051 6.574 138.419 6.75349 137.764 7.05688L138.353 8.32712ZM139.643 7.974C140.144 7.974 140.419 8.03771 140.545 8.0977C140.598 8.12319 140.592 8.13302 140.574 8.10671C140.565 8.09382 140.557 8.07855 140.553 8.06342C140.548 8.04884 140.549 8.04112 140.549 8.044H141.949C141.949 7.78699 141.879 7.53221 141.723 7.30754C141.571 7.08873 141.364 6.93814 141.15 6.8353C140.74 6.63862 140.212 6.574 139.643 6.574V7.974ZM140.549 8.044C140.549 8.13292 140.54 8.187 140.533 8.21483C140.526 8.24158 140.523 8.23234 140.542 8.20824L141.647 9.06776C141.887 8.75979 141.949 8.37942 141.949 8.044H140.549ZM140.535 8.218C140.454 8.32563 140.404 8.38301 140.38 8.40703L141.37 9.39697C141.463 9.30365 141.559 9.18503 141.655 9.058L140.535 8.218ZM140.315 8.482C140.324 8.46985 140.329 8.46518 140.325 8.4687C140.322 8.47172 140.315 8.47889 140.303 8.49049C140.277 8.51416 140.237 8.54751 140.181 8.59145L141.04 9.69655C141.175 9.59174 141.33 9.46209 141.435 9.322L140.315 8.482ZM140.191 8.584C140.073 8.672 139.985 8.738 139.927 8.782L140.767 9.902C140.825 9.858 140.913 9.792 141.031 9.704L140.191 8.584ZM139.964 8.75567C139.627 8.97553 139.395 9.12316 139.261 9.20376L139.981 10.4042C140.14 10.3088 140.391 10.1485 140.729 9.92833L139.964 8.75567ZM139.251 9.20966C138.526 9.6608 137.901 10.2119 137.38 10.8627L138.473 11.7373C138.891 11.2148 139.396 10.7685 139.99 10.3983L139.251 9.20966ZM137.385 10.856C136.825 11.5396 136.438 12.4515 136.188 13.542L137.553 13.854C137.773 12.8912 138.09 12.2044 138.468 11.744L137.385 10.856ZM136.189 13.538C135.796 15.2118 135.42 16.4194 135.068 17.1915L136.342 17.7725C136.752 16.8726 137.153 15.5575 137.552 13.858L136.189 13.538ZM135.065 17.1966C134.901 17.5656 134.748 17.7865 134.626 17.9067C134.513 18.0171 134.459 18.014 134.451 18.014V19.414C135.384 19.414 135.969 18.6064 136.344 17.7674L135.065 17.1966ZM134.451 18.014C134.341 18.014 134.275 17.9893 134.228 17.959C134.177 17.9265 134.107 17.8616 134.034 17.7246L132.799 18.3834C132.961 18.6864 133.181 18.9515 133.475 19.139C133.772 19.3287 134.105 19.414 134.451 19.414V18.014ZM134.043 17.741C133.858 17.3709 133.787 17.0678 133.787 16.822H132.387C132.387 17.3388 132.536 17.8571 132.791 18.367L134.043 17.741ZM133.787 16.822C133.787 16.5542 133.889 16.0638 134.164 15.2982L132.846 14.8258C132.563 15.6149 132.387 16.2978 132.387 16.822H133.787ZM134.16 15.3091C134.462 14.509 134.674 13.7993 134.787 13.1868L133.41 12.9332C133.318 13.4354 133.134 14.0603 132.85 14.8149L134.16 15.3091ZM134.784 13.2007C134.913 12.5724 134.975 11.8712 134.975 11.102H133.575C133.575 11.7995 133.519 12.4036 133.413 12.9193L134.784 13.2007Z" fill="black" mask="url(#path-1-outside-1_23_57)"/>
</g>
<defs>
<filter id="filter0_i_23_57" x="0.584648" y="0.524" width="142.364" height="25.632" filterUnits="userSpaceOnUse" color-interpolation-filters="sRGB">
<feFlood flood-opacity="0" result="BackgroundImageFix"/>
<feBlend mode="normal" in="SourceGraphic" in2="BackgroundImageFix" result="shape"/>
<feColorMatrix in="SourceAlpha" type="matrix" values="0 0 0 0 0 0 0 0 0 0 0 0 0 0 0 0 0 0 127 0" result="hardAlpha"/>
<feOffset dx="1" dy="1"/>
<feGaussianBlur stdDeviation="1.5"/>
<feComposite in2="hardAlpha" operator="arithmetic" k2="-1" k3="1"/>
<feColorMatrix type="matrix" values="0 0 0 0 0 0 0 0 0 0 0 0 0 0 0 0 0 0 1 0"/>
<feBlend mode="normal" in2="shape" result="effect1_innerShadow_23_57"/>
</filter>
</defs>
</svg>
