<?xml version="1.0" standalone="no"?>
<!DOCTYPE svg PUBLIC "-//W3C//DTD SVG 20010904//EN"
 "http://www.w3.org/TR/2001/REC-SVG-20010904/DTD/svg10.dtd">
<svg version="1.0" xmlns="http://www.w3.org/2000/svg"
 width="512.000000pt" height="512.000000pt" viewBox="0 0 512.000000 512.000000"
 preserveAspectRatio="xMidYMid meet">

<g transform="translate(0.000000,512.000000) scale(0.100000,-0.100000)"
fill="#000000" stroke="none">
<path d="M435 4365 c-158 -43 -277 -149 -336 -298 l-24 -62 -3 -1274 c-1 -839
1 -1293 8 -1330 24 -131 123 -268 239 -330 122 -65 27 -61 1654 -61 l1479 0
51 -44 c259 -221 616 -286 937 -171 215 78 409 251 512 460 71 141 98 261 98
424 -1 242 -91 462 -264 647 l-66 69 0 780 c0 858 1 839 -61 956 -62 115 -197
214 -328 239 -35 7 -699 10 -1950 9 -1569 0 -1905 -3 -1946 -14z m3955 -186
c42 -23 78 -52 101 -83 71 -94 69 -66 69 -872 0 -398 -2 -724 -5 -724 -3 0
-29 12 -57 26 -91 46 -229 76 -363 77 l-120 2 -340 239 c-236 167 -350 241
-373 244 -37 5 10 49 -620 -571 -188 -186 -346 -336 -350 -333 -4 2 -81 40
-172 83 -91 44 -328 159 -527 257 -198 97 -370 176 -380 176 -10 0 -244 -130
-518 -290 l-500 -290 -3 912 c-2 1001 -4 971 57 1055 35 49 108 101 165 119
33 10 415 12 1956 11 l1915 -2 65 -36z m-835 -1449 c132 -94 238 -174 235
-178 -2 -4 -29 -18 -60 -31 -305 -135 -516 -441 -545 -791 -12 -153 32 -355
109 -497 l34 -63 -892 0 -891 0 150 150 c440 439 1601 1579 1610 1579 6 1 118
-76 250 -169z m-1816 -435 c259 -126 471 -233 471 -236 0 -4 -202 -205 -449
-448 l-450 -442 -423 3 -423 3 -50 25 c-64 31 -124 91 -155 155 -24 49 -25 56
-28 315 l-2 265 117 66 c119 67 297 171 693 402 118 69 218 125 221 124 4 -1
218 -105 478 -232z m2575 125 c219 -56 413 -218 506 -424 207 -457 -62 -983
-554 -1082 -107 -22 -273 -15 -371 16 -425 133 -653 584 -506 1000 95 270 332
464 621 510 76 12 215 3 304 -20z"/>
<path d="M2025 3662 c-207 -72 -333 -273 -298 -478 28 -164 143 -295 301 -344
202 -63 418 33 513 226 33 66 34 73 34 184 0 105 -2 120 -28 174 -55 119 -146
199 -266 236 -79 25 -188 26 -256 2z m250 -170 c169 -87 197 -323 53 -447
-133 -113 -336 -70 -421 89 -16 31 -22 59 -22 116 0 65 4 82 30 129 30 56 87
105 148 128 47 19 164 10 212 -15z"/>
<path d="M4055 2145 c-25 -24 -25 -26 -25 -215 l0 -190 -185 0 c-184 0 -186 0
-210 -25 -33 -32 -33 -78 0 -110 24 -25 26 -25 210 -25 l185 0 0 -185 c0 -184
0 -186 25 -210 15 -16 36 -25 55 -25 19 0 40 9 55 25 25 24 25 26 25 210 l0
185 190 0 c189 0 191 0 215 25 33 32 33 78 0 110 -24 25 -26 25 -215 25 l-190
0 0 190 c0 189 0 191 -25 215 -15 16 -36 25 -55 25 -19 0 -40 -9 -55 -25z"/>
</g>
</svg>
