<svg width="18" height="19" viewBox="0 0 18 19" fill="none" xmlns="http://www.w3.org/2000/svg">
<path fill-rule="evenodd" clip-rule="evenodd" d="M9.07953 0.153426C8.81104 -0.051142 8.43896 -0.0511421 8.17047 0.153426L0.689425 5.85327C0.254991 6.18427 0 6.69911 0 7.24527V16.75C0 17.7971 0.924953 18.5 1.875 18.5H4.96354C5.13983 18.6556 5.37139 18.75 5.625 18.75H11.625C11.8786 18.75 12.1102 18.6556 12.2865 18.5H15.375C16.325 18.5 17.25 17.7971 17.25 16.75V7.24527C17.25 6.69911 16.995 6.18427 16.5606 5.85327L9.07953 0.153426ZM12.625 17H15.375C15.506 17 15.6089 16.9529 15.6722 16.8965C15.7342 16.8415 15.75 16.7883 15.75 16.75V7.24527C15.75 7.16725 15.7136 7.0937 15.6515 7.04642L8.625 1.69288L1.59849 7.04642C1.53643 7.0937 1.5 7.16725 1.5 7.24527V16.75C1.5 16.7883 1.5158 16.8415 1.57778 16.8965C1.64113 16.9529 1.74405 17 1.875 17H4.625V10.75C4.625 10.1977 5.07272 9.75 5.625 9.75H11.625C12.1773 9.75 12.625 10.1977 12.625 10.75V17ZM11.125 17H6.125V11.25H11.125V17Z" fill="#222222"/>
</svg>
