<svg width="67" height="52" viewBox="0 0 67 52" fill="none" xmlns="http://www.w3.org/2000/svg">
<path d="M6 51H61C63.7615 51 66 48.7615 66 46V6C66 3.23855 63.7615 1 61 1H6C3.23857 1 1 3.23855 1 6V46C1 48.7615 3.23857 51 6 51Z" stroke="black" stroke-width="2" stroke-linecap="round" stroke-linejoin="round"/>
<path d="M46.0096 22.0603C49.448 22.0603 52.2355 19.2728 52.2355 15.8343C52.2355 12.3958 49.448 9.6084 46.0096 9.6084C42.5711 9.6084 39.7836 12.3958 39.7836 15.8343C39.7836 19.2728 42.5711 22.0603 46.0096 22.0603Z" stroke="black" stroke-width="2" stroke-linecap="round" stroke-linejoin="round"/>
<path d="M43.9135 51.0005C42.3609 42.731 37.9208 35.2823 31.3853 29.9833C24.8499 24.6843 16.6442 21.8797 8.2326 22.0699C5.8057 22.0634 3.38377 22.2895 1 22.7449" stroke="black" stroke-width="2" stroke-linecap="round" stroke-linejoin="round"/>
<path d="M66 35.7039C62.0615 34.3739 57.9325 33.6967 53.7755 33.6991C48.514 33.6877 43.3056 34.7526 38.4707 36.8285" stroke="black" stroke-width="2" stroke-linecap="round" stroke-linejoin="round"/>
</svg>
