<svg width="18" height="18" viewBox="0 0 18 18" fill="none" xmlns="http://www.w3.org/2000/svg">
<path d="M8.99999 10.2857C10.7752 10.2857 12.2143 8.84666 12.2143 7.07146C12.2143 5.29626 10.7752 3.85718 8.99999 3.85718C7.22479 3.85718 5.78571 5.29626 5.78571 7.07146C5.78571 8.84666 7.22479 10.2857 8.99999 10.2857Z" stroke="black" stroke-linecap="round" stroke-linejoin="round"/>
<path d="M3.50996 15.3001C4.0837 14.3583 4.89006 13.5799 5.85152 13.0399C6.81298 12.4997 7.89719 12.2161 8.99996 12.2161C10.1027 12.2161 11.187 12.4997 12.1484 13.0399C13.1099 13.5799 13.9162 14.3583 14.49 15.3001" stroke="black" stroke-linecap="round" stroke-linejoin="round"/>
<path d="M9 17.3572C13.6156 17.3572 17.3571 13.6156 17.3571 9.00003C17.3571 4.3845 13.6156 0.642883 9 0.642883C4.38447 0.642883 0.642853 4.3845 0.642853 9.00003C0.642853 13.6156 4.38447 17.3572 9 17.3572Z" stroke="black" stroke-linecap="round" stroke-linejoin="round"/>
</svg>
