<svg width="18" height="18" viewBox="0 0 18 18" fill="none" xmlns="http://www.w3.org/2000/svg">
<path fill-rule="evenodd" clip-rule="evenodd" d="M16.5 8C16.5 11.5899 13.5899 14.5 10 14.5C8.3728 14.5 6.88525 13.9021 5.74508 12.914C5.72644 12.7516 5.65485 12.5942 5.53033 12.4697C5.40581 12.3451 5.24839 12.2736 5.08605 12.2549C4.09792 11.1148 3.5 9.6272 3.5 8C3.5 4.41015 6.41015 1.5 10 1.5C13.5899 1.5 16.5 4.41015 16.5 8ZM3.83758 13.1018C2.68988 11.717 2 9.93907 2 8C2 3.58172 5.58172 0 10 0C14.4183 0 18 3.58172 18 8C18 12.4183 14.4183 16 10 16C8.06093 16 6.28299 15.3101 4.89824 14.1624L1.53033 17.5303C1.23744 17.8232 0.762563 17.8232 0.46967 17.5303C0.176777 17.2374 0.176777 16.7626 0.46967 16.4697L3.83758 13.1018Z" fill="#222222"/>
</svg>
