<svg width="20" height="18" viewBox="0 0 20 18" fill="none" xmlns="http://www.w3.org/2000/svg">
<path fill-rule="evenodd" clip-rule="evenodd" d="M8.6285 1.62986C6.64425 -0.21956 3.46431 1.61638 4.07383 4.2595L4.25731 5.05515C4.40479 5.69464 4.0326 6.33929 3.40504 6.53133L2.62425 6.77025C0.0304785 7.56395 0.0304839 11.2358 2.62425 12.0295L3.40504 12.2685C4.0326 12.4605 4.40479 13.1051 4.25731 13.7446L4.07383 14.5403C3.46431 17.1834 6.64425 19.0193 8.6285 17.1699L9.22581 16.6132C9.70589 16.1657 10.4503 16.1657 10.9304 16.6132L11.5277 17.1699C13.5119 19.0193 16.6919 17.1834 16.0823 14.5403L15.8989 13.7446C15.7514 13.1051 16.1236 12.4605 16.7511 12.2685L17.5319 12.0295C20.1257 11.2358 20.1257 7.56395 17.5319 6.77025L16.7511 6.53133C16.1236 6.33929 15.7514 5.69464 15.8989 5.05515L16.0823 4.2595C16.6919 1.61638 13.5119 -0.219558 11.5277 1.62986L10.9304 2.18659C10.4503 2.63405 9.7059 2.63405 9.22581 2.18658L8.6285 1.62986ZM5.53547 3.92244C5.25842 2.72102 6.70384 1.8865 7.60577 2.72714L8.20309 3.28387C9.25927 4.26828 10.8969 4.26829 11.9531 3.28387L12.5504 2.72714C13.4523 1.8865 14.8978 2.72102 14.6207 3.92243L14.4372 4.71809C14.1128 6.12497 14.9316 7.5432 16.3122 7.96567L17.093 8.2046C18.272 8.56537 18.272 10.2344 17.093 10.5952L16.3122 10.8341C14.9316 11.2566 14.1128 12.6748 14.4372 14.0817L14.6207 14.8773C14.8977 16.0788 13.4523 16.9133 12.5504 16.0726L11.9531 15.5159C10.8969 14.5315 9.25927 14.5315 8.20309 15.5159L7.60577 16.0726C6.70384 16.9133 5.25842 16.0788 5.53547 14.8773L5.71895 14.0817C6.04339 12.6748 5.22458 11.2566 3.84396 10.8341L3.06316 10.5952C1.88418 10.2344 1.88418 8.56537 3.06316 8.2046L3.84395 7.96568C5.22457 7.5432 6.04339 6.12498 5.71895 4.71809L5.53547 3.92244ZM11.6985 8.46439C12.2151 9.3593 11.9085 10.5036 11.0136 11.0203C10.1187 11.537 8.97437 11.2304 8.45769 10.3354C7.94102 9.44053 8.24764 8.29621 9.14255 7.77954C10.0375 7.26286 11.1818 7.56948 11.6985 8.46439ZM12.9975 7.71439C13.9284 9.32674 13.376 11.3884 11.7636 12.3193C10.1513 13.2502 8.08955 12.6978 7.15866 11.0854C6.22776 9.47309 6.7802 7.41139 8.39255 6.4805C10.0049 5.54961 12.0666 6.10204 12.9975 7.71439Z" fill="#222222"/>
</svg>
