<svg width="22" height="23" viewBox="0 0 22 23" fill="none" xmlns="http://www.w3.org/2000/svg">
<path d="M19.4455 9.64992H2.58605C2.36114 9.648 2.13843 9.69436 1.93294 9.78586C1.72747 9.87735 1.54401 10.0119 1.39495 10.1803C1.24589 10.3487 1.13469 10.5472 1.06886 10.7623C1.00303 10.9774 0.984105 11.204 1.01335 11.4271L2.16142 20.0769C2.21133 20.4576 2.39881 20.8071 2.68851 21.059C2.97822 21.3111 3.35013 21.4484 3.73412 21.4451H18.2659C18.6498 21.4484 19.0218 21.3111 19.3115 21.059C19.6012 20.8071 19.7886 20.4576 19.8386 20.0769L20.9867 11.4271C21.0155 11.2067 20.9974 10.9827 20.9334 10.7698C20.8694 10.5569 20.761 10.36 20.6154 10.1921C20.4698 10.0242 20.2902 9.88903 20.0885 9.79557C19.8869 9.70212 19.6677 9.65247 19.4455 9.64992Z" stroke="black" stroke-opacity="0.8" stroke-width="1.5" stroke-linecap="round" stroke-linejoin="bevel"/>
<path d="M7.08405 13.5816V17.5134" stroke="black" stroke-opacity="0.8" stroke-width="1.5" stroke-linecap="round" stroke-linejoin="bevel"/>
<path d="M11.0158 13.5816V17.5134" stroke="black" stroke-opacity="0.8" stroke-width="1.5" stroke-linecap="round" stroke-linejoin="bevel"/>
<path d="M14.9475 13.5816V17.5134" stroke="black" stroke-opacity="0.8" stroke-width="1.5" stroke-linecap="round" stroke-linejoin="bevel"/>
<path d="M14.9161 2.63567C15.8581 2.79843 16.7212 3.26442 17.3742 3.96278C18.0272 4.66112 18.4342 5.55363 18.5333 6.50452L18.8793 9.64992" stroke="black" stroke-opacity="0.8" stroke-width="1.5" stroke-linecap="round" stroke-linejoin="bevel"/>
<path d="M3.15228 9.64995L3.49828 6.50455C3.60384 5.55929 4.01368 4.67394 4.66609 3.98183C5.31849 3.28971 6.17811 2.82833 7.11549 2.66716" stroke="black" stroke-opacity="0.8" stroke-width="1.5" stroke-linecap="round" stroke-linejoin="bevel"/>
<path d="M14.9475 2.96588C14.9475 3.22403 14.8967 3.47968 14.7979 3.71818C14.6991 3.95669 14.5543 4.17341 14.3718 4.35595C14.1892 4.53851 13.9725 4.68331 13.734 4.78211C13.4955 4.88091 13.2398 4.93175 12.9817 4.93175H9.04992C8.52854 4.93175 8.02851 4.72463 7.65984 4.35595C7.29117 3.98728 7.08405 3.48726 7.08405 2.96588C7.08405 2.44449 7.29117 1.94447 7.65984 1.57579C8.02851 1.20712 8.52854 1 9.04992 1H12.9817C13.5031 1 14.0031 1.20712 14.3718 1.57579C14.7404 1.94447 14.9475 2.44449 14.9475 2.96588Z" stroke="black" stroke-opacity="0.8" stroke-width="1.5" stroke-linecap="round" stroke-linejoin="bevel"/>
</svg>
